<?xml version="1.0" encoding="UTF-8" standalone="no"?>
<svg
   xmlns:dc="http://purl.org/dc/elements/1.1/"
   xmlns:cc="http://creativecommons.org/ns#"
   xmlns:rdf="http://www.w3.org/1999/02/22-rdf-syntax-ns#"
   xmlns:svg="http://www.w3.org/2000/svg"
   xmlns="http://www.w3.org/2000/svg"
   xmlns:sodipodi="http://sodipodi.sourceforge.net/DTD/sodipodi-0.dtd"
   xmlns:inkscape="http://www.inkscape.org/namespaces/inkscape"
   inkscape:version="1.0 (4035a4f, 2020-05-01)"
   height="13.41547"
   width="54.744446"
   sodipodi:docname="Scratchlogo.svg"
   version="1.1"
   viewBox="0 0 54.744447 13.41547"
   id="Layer_1">
  <metadata
     id="metadata37">
    <rdf:RDF>
      <cc:Work
         rdf:about="">
        <dc:format>image/svg+xml</dc:format>
        <dc:type
           rdf:resource="http://purl.org/dc/dcmitype/StillImage" />
        <dc:title></dc:title>
      </cc:Work>
    </rdf:RDF>
  </metadata>
  <defs
     id="defs35" />
  <sodipodi:namedview
     inkscape:current-layer="Layer_1"
     inkscape:window-maximized="0"
     inkscape:window-y="25"
     inkscape:window-x="0"
     inkscape:cy="6.65"
     inkscape:cx="27.394444"
     inkscape:zoom="16.596067"
     fit-margin-bottom="0"
     fit-margin-right="0"
     fit-margin-left="0"
     fit-margin-top="0"
     showgrid="false"
     id="namedview33"
     inkscape:window-height="715"
     inkscape:window-width="1420"
     inkscape:pageshadow="2"
     inkscape:pageopacity="0"
     guidetolerance="10"
     gridtolerance="10"
     objecttolerance="10"
     borderopacity="1"
     bordercolor="#666666"
     pagecolor="#ffffff" />
  <style
     id="style10">.st0{fill:#fff}.st1{fill:#f9a83a}</style>
  <path
     style="fill:#999999;stroke:none;stroke-opacity:1"
     d="m 2.7444444,6.3 c -0.7,-0.1 -1.1,-0.6 -0.9,-2 V 4.1 c 0.2,-1.2 0.3,-1.5 0.9,-1.5 0.2,0 0.4,0.1 0.6,0.3 0.2,0.2 0.6,0.5 0.8,1.1 0.2,0.4 0.2,0.7 0.2999996,1 v 0.4 c 0,0.2 0.2,0.4 0.5,0.5 0.3,0.1 0.6,-0.2 0.7,-0.5 0,0 0.2,-3.8 0.2,-3.9 0,-0.3 -0.3,-0.6 -0.6,-0.6 -0.3,0 -0.6,0.3 -0.6,0.6 V 2.6 C 4.1444444,2.1 3.5444444,1.6 2.8444444,1.6 0.94444444,1.3 0.74444444,3 0.64444444,4 v 0.2 c -0.2,1.9 0.39999996,3.1 1.89999996,3.4 1.6,0.3 2.6999996,0.6 2.6999996,1.6 0,0.4 -0.2,0.8 -0.6,1.1 -0.3999996,0.4 -0.9999996,0.5 -1.5999996,0.4 -0.2,0 -0.3,-0.1 -0.5,-0.1 -0.2,-0.1 -0.8,-0.4 -1,-0.8 -0.1,-0.4 -0.2,-0.9 -0.2,-1.2 V 8.4 c 0,-0.3 -0.3,-0.6 -0.59999996,-0.6 -0.3,0 -0.6,0.3 -0.6,0.6 0,0 0,1.2 -0.1,1.9 -0.1,1.2 0,2.1 0,2.2 0,0.3 0.3,0.6 0.6,0.6 0.3,0 0.59999996,-0.3 0.59999996,-0.6 v -1.1 c 0.4,0.3 1,0.6 1.7,0.7 0.9,0.2 1.7999996,-0.1 2.4999996,-0.7 0.6,-0.5 1,-1.3 1,-2 0,-2.5 -2.4999996,-2.9 -3.6999996,-3.1 M 19.544444,4.6 c -0.1,0.1 -0.2,0.2 -0.4,0.3 -0.1,0.1 -0.4,0.2 -0.5,0.2 l -0.3,0.1 c -0.4,0.2 -1,0.3 -1.6,0.4 V 2.8 c 1.6,0 3,0.1 3.3,0.6 v 0.2 c 0,0.2 -0.2,0.6 -0.5,1 m 3.5,5.4 c -0.3,-0.1 -0.7,0.1 -0.8,0.4 -0.2,0.7 -0.4,0.7 -0.5,0.8 -0.1,0.1 -0.3,0 -0.6,-0.1 0,0 -0.1,-0.2 -0.2,-0.3 -0.1,-0.2 -0.2,-1 -0.2,-1.5 0,-1.8 -0.4,-2.8 -0.9,-3.3 0.3,-0.2 0.6,-0.5 0.6,-0.5 0.7,-1 0.9,-1.8 0.5,-2.5 -1,-1.7 -5.3,-1.2 -6.7,-1 -0.3,0 -0.6,0.4 -0.5,0.7 0,0.3 0.4,0.6 0.7,0.5 0.3,0 0.6,-0.1 0.9,-0.1 v 2.8 h -0.3 c -0.3,0 -0.6,0.3 -0.6,0.6 0,0.3 0.3,0.6 0.6,0.6 h 0.3 v 3.5 l -0.8,0.1 c -0.3,0 -0.6,0.4 -0.5,0.7 0,0.3 0.4,0.6 0.7,0.5 l 2.9,-0.4 c 0.3,0 0.6,-0.4 0.5,-0.7 0,-0.3 -0.4,-0.6 -0.7,-0.5 l -0.9,0.1 V 6.9 c 0.6,-0.1 1.1,-0.2 1.6,-0.4 h 0.2 c 0.2,0 0.4,0.1 0.5,0.3 0.2,0.3 0.4,0.9 0.5,2.4 0,0.3 0.1,1.5 0.3,2 0.1,0.2 0.4,0.7 0.9,0.9 0.4,0.1 0.9,0.3 1.5,0 0.5,-0.3 0.9,-0.6 1.1,-1.5 0.4,-0.2 0.2,-0.5 -0.1,-0.6 m 21.8,-1.9 c -0.3,0 -0.6,0.3 -0.6,0.6 v 0.8 c 0,0.3 -0.1,0.7 -0.2,0.8 -0.1,0.2 -0.2,0.3 -0.4,0.5 -0.1,0.1 -0.3,0.2 -0.5,0.3 -0.2,0.1 -0.3,0.1 -0.7,0.1 h -0.4 c -1.6,0.1 -1.8,-1.2 -1.8,-1.5 V 7.1 c 0.1,-1 0.3,-1.7 0.7,-2 0.3,-0.2 0.7,-0.1 1.4,0.1 0.8,0.3 1.3,1.2 1.4,1.2 0.1,0.2 0.4,0.3 0.7,0.3 0.3,-0.1 0.4,-0.3 0.4,-0.6 V 3.4 c 0,-0.3 -0.3,-0.6 -0.6,-0.6 -0.3,0 -0.6,0.3 -0.6,0.6 v 1.1 c -0.2,-0.2 -0.5,-0.3 -0.8,-0.5 -0.3,-0.2 -1.5,-0.7 -2.4,-0.1 -0.7,0.5 -1.2,1.4 -1.3,2.9 v 2.8 c 0.1,0.9 0.8,2.7 3,2.7 h 0.3 c 0.4,0 0.8,0 1.2,-0.2 0.3,-0.1 0.6,-0.3 0.9,-0.6 0.2,-0.2 0.3,-0.4 0.5,-0.7 0.2,-0.4 0.3,-1.1 0.4,-1.3 v -1 c 0,-0.2 -0.3,-0.4 -0.6,-0.4 m 9.9,4 c 0,-0.3 -0.3,-0.6 -0.6,-0.6 -0.2,0 -0.5,0 -0.8,0.1 0,-1 0,-3.1 -0.1,-9.9 h 0.9 c 0.3,0 0.6,-0.3 0.6,-0.6 0,-0.3 -0.3,-0.6 -0.6,-0.6 l -3.2,0.1 c -0.3,0 -0.6,0.3 -0.6,0.6 0,0.3 0.3,0.6 0.6,0.6 h 1 V 6 l -3.6,0.6 V 2.8 h 1 c 0.3,0 0.6,-0.3 0.6,-0.6 0,-0.3 -0.3,-0.6 -0.6,-0.6 h -3.2 c -0.3,0 -0.6,0.3 -0.6,0.6 0,0.3 0.3,0.6 0.6,0.6 h 1 v 8.1 h -1 c -0.3,0 -0.6,0.3 -0.6,0.6 0,0.3 0.3,0.6 0.6,0.6 l 3.3,0.1 c 0.3,0 0.6,-0.3 0.6,-0.6 0,-0.3 -0.3,-0.6 -0.6,-0.6 h -1 V 7.9 l 3.6,-0.6 v 4.6 c -0.8,0.2 -1.4,0.2 -1.7,0.6 -0.2,0.2 -0.2,0.6 0.1,0.8 0.2,0.2 0.5,0.1 0.9,0 0.3,-0.2 1.5,-0.3 2.9,-0.4 0.3,-0.2 0.5,-0.5 0.5,-0.8"
     class="st0"
     id="path20" />
  <path
     style="fill:#999999"
     d="m 25.944444,6.4 0.7,-3.6 1.3,3.3 z m 5.3,1 c -0.2,0.1 -0.5,0.2 -1.1,0.5 l -0.8,-1.9 -2.3,-5.5 c 0,-0.1 -0.1,-0.3 -0.2,-0.3 -0.1,-0.1 -0.3,-0.2 -0.5,-0.2 l -2.6,0.3 c -0.3,0 -0.6,0.3 -0.5,0.7 0,0.3 0.3,0.6 0.7,0.5 0,0 1,-0.1 1.8,-0.2 -0.2,1.1 -1.1,5.6 -1.4,7 l -1.8,-0.1 c -0.3,0 -0.6,0.2 -0.6,0.6 0,0.3 0.2,0.6 0.6,0.6 l 3,0.1 c 0.3,0 0.6,-0.2 0.6,-0.6 0,-0.3 -0.2,-0.6 -0.6,-0.6 l 0.1,-0.9 2.8,-0.5 0.6,1.5 c -0.5,0.3 -0.7,0.4 -1,0.7 -0.2,0.3 -0.1,0.6 0.1,0.8 0.3,0.2 0.7,0.1 0.9,-0.1 0.3,-0.4 1.4,-0.9 2.5,-1.3 0.3,-0.1 0.5,-0.5 0.4,-0.8 -0.1,-0.2 -0.4,-0.4 -0.7,-0.3"
     class="st0"
     id="path22" />
  <path
     style="fill:#999999"
     d="m 38.444444,1.3 c 0,0 -1.8,0.1 -3.8,0.2 l -3.9,0.1 c -0.2,0 -0.3,0.1 -0.5,0.2 -0.1,0.1 -0.2,0.3 -0.1,0.5 l 0.5,3 c 0,0.3 0.4,0.6 0.7,0.5 0.3,0 0.5,-0.3 0.5,-0.6 0,0 -0.2,-1.6 -0.4,-2.4 h 2.6 v 7.9 h -1.3 c -0.3,0 -0.6,0.3 -0.6,0.6 0,0.3 0.3,0.6 0.6,0.6 l 3.7,-0.1 c 0.3,0 0.6,-0.3 0.6,-0.6 0,-0.3 -0.3,-0.6 -0.6,-0.6 h -1.2 V 2.7 c 1,0 1.9,-0.1 2.5,-0.1 v 1.2 c 0,0.6 0.1,0.8 0.1,0.9 0.2,0.3 0.5,0.4 0.8,0.2 0.2,-0.1 0.3,-0.4 0.3,-0.6 0,0 0,-1.4 0.1,-2.2 0,-0.2 0,-0.3 -0.2,-0.5 0,-0.2 -0.2,-0.3 -0.4,-0.3 m -25.5,7.4 c -0.3,0 -0.6,0.3 -0.6,0.6 v 0.9 c 0,0.2 -0.1,0.6 -0.2,0.8 -0.1,0.2 -0.2,0.3 -0.4,0.5 -0.1,0.1 -0.3,0.2 -0.5,0.3 -0.2,0.1 -0.3,0.1 -0.7,0.1 h -0.4 c -1.6,0 -1.8,-1.2 -1.8,-1.5 V 7.8 c 0.1,-1 0.3,-1.7 0.7,-2 0.3,-0.2 0.7,-0.1 1.4,0.1 0.8,0.3 1.4,1.2 1.4,1.2 0.1,0.2 0.4,0.3 0.7,0.3 0.3,-0.1 0.4,-0.3 0.4,-0.6 V 4.1 c 0,-0.3 -0.3,-0.6 -0.6,-0.6 -0.3,0 -0.6,0.3 -0.6,0.6 v 1.1 c -0.2,-0.2 -0.5,-0.4 -0.8,-0.5 -0.4,-0.2 -1.5,-0.6 -2.5,-0.1 -0.7,0.5 -1.2,1.4 -1.3,2.9 v 2.8 c 0.1,0.9 0.8,2.7 3.1,2.7 h 0.3 c 0.4,0 0.8,0 1.2,-0.2 0.3,-0.1 0.6,-0.3 0.9,-0.6 0.2,-0.2 0.3,-0.4 0.5,-0.7 0.2,-0.4 0.3,-1.1 0.4,-1.3 v -1 c 0,-0.2 -0.3,-0.5 -0.6,-0.5"
     class="st0"
     id="path24" />
</svg>
