<?xml version="1.0" encoding="UTF-8" standalone="no"?>
<svg
   xmlns:dc="http://purl.org/dc/elements/1.1/"
   xmlns:cc="http://creativecommons.org/ns#"
   xmlns:rdf="http://www.w3.org/1999/02/22-rdf-syntax-ns#"
   xmlns:svg="http://www.w3.org/2000/svg"
   xmlns="http://www.w3.org/2000/svg"
   xmlns:sodipodi="http://sodipodi.sourceforge.net/DTD/sodipodi-0.dtd"
   xmlns:inkscape="http://www.inkscape.org/namespaces/inkscape"
   version="1.1"
   id="svg10"
   xml:space="preserve"
   width="569.67725"
   height="681.75647"
   viewBox="0 0 569.67725 681.7565"
   sodipodi:docname="VishvaKannadaLogo.svg"
   inkscape:version="1.0 (4035a4f, 2020-05-01)"><metadata
     id="metadata16"><rdf:RDF><cc:Work
         rdf:about=""><dc:format>image/svg+xml</dc:format><dc:type
           rdf:resource="http://purl.org/dc/dcmitype/StillImage" /><dc:title></dc:title></cc:Work></rdf:RDF></metadata><defs
     id="defs14"><clipPath
       clipPathUnits="userSpaceOnUse"
       id="clipPath28"><path
         d="M 0,0 H 595.2756 V 841.8898 H 0 Z"
         id="path26" /></clipPath></defs><sodipodi:namedview
     inkscape:document-rotation="0"
     pagecolor="#ffffff"
     bordercolor="#666666"
     borderopacity="1"
     objecttolerance="10"
     gridtolerance="10"
     guidetolerance="10"
     inkscape:pageopacity="0"
     inkscape:pageshadow="2"
     inkscape:window-width="1440"
     inkscape:window-height="819"
     id="namedview12"
     showgrid="false"
     fit-margin-top="0"
     fit-margin-left="0"
     fit-margin-right="0"
     fit-margin-bottom="0"
     inkscape:pagecheckerboard="true"
     inkscape:zoom="0.87822293"
     inkscape:cx="147.66454"
     inkscape:cy="510.14763"
     inkscape:window-x="0"
     inkscape:window-y="25"
     inkscape:window-maximized="0"
     inkscape:current-layer="g18" /><g
     id="g18"
     inkscape:groupmode="layer"
     inkscape:label="VishvaKannadaLogo"
     transform="matrix(1.3333333,0,0,-1.3333333,-108.06983,908.2237)"><g
       id="g20" /><ellipse
       style="fill:none;stroke:#000000;stroke-width:3.9555;stroke-linecap:round;stroke-miterlimit:4;stroke-dasharray:none"
       id="path34"
       cx="277.62753"
       cy="-302.44177"
       transform="scale(1,-1)"
       rx="194.59741"
       ry="126.54541" /><path
       sodipodi:nodetypes="cccccc"
       id="path863-7"
       d="m 95.81987,243.69229 c 53.03152,-16.70796 107.18319,-26.26063 164.57197,-27.06776 113.87517,0.43466 153.4961,13.74723 195.9706,27.06776 -28.31238,-33.99482 -70.03713,-56.58913 -127.21848,-66.04533 -48.57416,-7.37047 -94.88474,-4.1775 -139.12828,8.66168 -46.87854,13.7099 -76.15699,33.57984 -94.19581,57.38365 z"
       style="fill:#070707;fill-opacity:1;stroke:none;stroke-width:0.75px;stroke-linecap:butt;stroke-linejoin:miter;stroke-opacity:1" /><path
       sodipodi:nodetypes="cccccc"
       id="path863-8"
       d="m 96.00264,239.79258 c 53.03152,-16.70796 107.18319,-26.26063 164.57197,-27.06776 113.87517,0.43466 153.4961,13.74723 195.9706,27.06776 -28.31238,-33.99482 -70.03713,-56.58913 -127.21848,-66.04533 -48.57416,-7.37047 -94.88474,-4.1775 -139.12829,8.66168 -46.87853,13.7099 -76.15698,33.57984 -94.1958,57.38365 z"
       style="fill:#000000;fill-opacity:1;stroke:none;stroke-width:0.75px;stroke-linecap:butt;stroke-linejoin:miter;stroke-opacity:1" /><path
       style="fill:#c92121;fill-opacity:1;stroke:none;stroke-width:0.75px;stroke-linecap:butt;stroke-linejoin:miter;stroke-opacity:1"
       d="m 95.819876,243.69229 c 53.031514,-16.70796 107.183184,-26.26063 164.571974,-27.06776 113.87516,0.43466 153.4961,13.74723 195.97059,27.06776 -28.31238,-33.99482 -70.03712,-56.58913 -127.21847,-66.04533 -48.57417,-7.37047 -94.88475,-4.1775 -139.12829,8.66168 -46.87854,13.7099 -76.15699,33.57984 -94.195804,57.38365 z"
       id="path863"
       sodipodi:nodetypes="cccccc" /><ellipse
       style="fill:#000000;fill-opacity:1;stroke:#000000;stroke-width:0.765498;stroke-linecap:round;stroke-miterlimit:4;stroke-dasharray:none;stroke-opacity:1"
       id="path1016"
       cx="349.11319"
       cy="-188.77205"
       transform="matrix(0.98293056,0.18397693,0.19790276,-0.98022166,0,0)"
       rx="77.237175"
       ry="19.902866" /><path
       id="path983"
       d="m 363.6214,305.87647 c 0,-45.37574 -36.78625,-82.16201 -82.16446,-82.16201 -45.37825,0 -82.16705,36.78545 -82.16705,82.16201 v 0 c 0,45.37815 36.78799,82.16449 82.16705,82.16449 45.37903,0 82.16446,-36.78634 82.16446,-82.16449 z"
       stroke-width="0.617597"
       stroke="#cccccc"
       fill="#ffffff"
       style="fill:#ffff00;stroke:none" /><path
       id="path985"
       d="m 275.24072,228.52013 c -0.41587,0.0619 -0.77241,0.26516 -0.79798,0.44219 -0.0219,0.18119 -0.0512,0.45457 -0.0691,0.61101 -0.044,0.38211 -1.968,2.06688 -3.2304,2.83105 -0.63734,0.38208 -1.14796,0.96921 -1.35699,1.55636 -0.18868,0.51876 -0.4422,0.94449 -0.56335,0.94449 -0.11847,0 -0.21491,0.17705 -0.21491,0.39444 0,0.21986 -0.26099,0.57724 -0.57887,0.80451 -0.31531,0.21987 -0.49653,0.53443 -0.39608,0.69582 0.11278,0.18115 0.0179,0.22891 -0.24535,0.13092 -0.31124,-0.12269 -0.42406,0.0163 -0.42406,0.49984 0,0.41832 -0.47274,1.15613 -1.2649,1.98865 -1.30675,1.35624 -1.86762,3.02372 -1.27635,3.77555 0.15074,0.18856 0.35162,0.67935 0.45214,1.09107 0.0977,0.41009 0.54924,1.02112 0.99717,1.35542 0.97326,0.71806 1.00132,0.98323 0.24127,2.27025 -0.31786,0.53858 -0.50478,1.16355 -0.41423,1.39907 0.0871,0.2289 -0.34755,1.46739 -0.97081,2.74211 -0.84071,1.73255 -1.52171,2.682 -2.66963,3.73106 -1.38506,1.26237 -2.77428,3.17281 -2.77428,3.81759 0,0.13093 0.18696,0.24536 0.41171,0.24536 0.27923,0 0.41424,0.28573 0.41994,0.8885 0.005,0.49081 0.18868,1.12982 0.4118,1.42376 0.71557,0.94861 0.29307,2.89364 -0.46603,2.13933 -0.18704,-0.19017 -0.49829,-0.34168 -0.69754,-0.34168 -0.5048,0 -0.44216,0.80448 0.0797,1.00377 0.79379,0.30548 -0.19519,0.63322 -1.94179,0.64063 -0.90503,0.004 -1.78368,0.0995 -1.95236,0.20915 -0.16884,0.11529 -0.63325,0.84406 -1.02526,1.62716 -0.62746,1.24426 -0.85478,1.45175 -1.7532,1.62059 -1.37917,0.25855 -3.07136,0.25526 -5.55083,-0.0108 -1.9278,-0.20912 -2.1452,-0.17457 -3.42808,0.51305 -1.06137,0.5665 -1.89962,0.76827 -3.70136,0.88602 -2.66811,0.17948 -2.89129,0.32032 -5.28756,3.37781 -0.76993,0.97906 -1.96224,2.29826 -2.64732,2.9348 -0.81846,0.76005 -1.14377,1.22864 -0.94289,1.37104 0.4907,0.34178 0.11858,1.85613 -0.67531,2.74871 -0.40015,0.45048 -0.88434,1.04909 -1.07364,1.33075 -0.19106,0.28737 -0.59716,0.8901 -0.90254,1.33895 -0.4117,0.61095 -0.50226,1.03341 -0.35584,1.64439 0.11034,0.45452 0.21091,1.43698 0.21742,2.19119 0.009,0.87457 0.17296,1.516 0.45056,1.78114 0.57718,0.54681 1.14378,1.91783 0.79379,1.91783 -0.14666,0 -0.26758,0.36972 -0.26758,0.82436 0,0.45034 0.10508,0.82008 0.23697,0.82008 0.13093,0 0.2233,-0.21576 0.20683,-0.47843 -0.0733,-1.0779 0.47254,-0.66372 0.57311,0.43561 0.0733,0.79463 0.0137,1.13228 -0.17866,1.00957 -0.36571,-0.22312 -0.36978,-0.28329 0.12011,2.04629 0.33346,1.59093 0.62922,2.20604 1.57862,3.30783 0.64143,0.74522 1.38099,1.42127 1.6445,1.5053 0.26514,0.0839 0.4784,0.33346 0.4784,0.55909 0,0.72794 0.83239,1.68726 1.59988,1.83963 0.4267,0.0847 0.91903,0.45626 1.12994,0.84817 0.29143,0.54259 0.51618,0.66125 1.01283,0.53851 0.39608,-0.10171 0.64551,-0.0423 0.64551,0.15317 0,0.17296 0.15317,0.29148 0.3418,0.25863 0.18848,-0.0293 0.52868,0.0236 0.75425,0.12012 0.22476,0.0942 0.73361,0.28822 1.12562,0.43239 0.55088,0.20088 0.75422,0.50642 0.88681,1.31509 0.23149,1.45747 1.87761,3.13234 3.49979,3.56228 1.53818,0.40587 2.68617,1.82725 2.49669,3.09779 -0.0814,0.56897 -0.27501,0.82264 -0.62327,0.82264 -0.27516,0 -0.57482,0.12434 -0.668,0.27333 -0.0936,0.15067 -0.40827,0.2751 -0.70322,0.2751 -0.63143,0 -0.65535,0.2215 -0.11035,0.94696 0.25781,0.34005 0.34593,0.8407 0.24548,1.37515 -0.1243,0.6695 0.0138,1.06152 0.67928,1.89814 0.87048,1.09349 1.38928,2.50661 1.39343,3.78376 0.002,0.63899 0.1605,0.78638 1.12561,1.04739 0.93287,0.24957 1.20395,0.22897 1.59584,-0.12672 0.26095,-0.23559 0.65705,-0.42833 0.87861,-0.42833 0.22322,0 0.52449,-0.12429 0.67359,-0.27165 0.14666,-0.14667 0.88272,-0.45626 1.63041,-0.68346 1.30693,-0.3977 1.38344,-0.392 1.83391,0.149 0.25931,0.31134 0.55259,0.99147 0.64721,1.50772 0.20665,1.09768 -0.0676,2.85659 -0.44624,2.85659 -0.14258,0 -0.26106,0.17133 -0.26106,0.3837 0,0.21084 -0.18534,0.45212 -0.4118,0.54104 -0.23966,0.0912 -0.41005,0.50234 -0.41005,0.98735 0,0.78393 0.0595,0.8301 1.0737,0.8301 0.59291,0 1.14379,-0.15482 1.23274,-0.34347 0.0855,-0.18856 0.0797,-0.044 -0.009,0.31535 -0.13094,0.51882 -0.0733,0.62346 0.25945,0.49497 0.23288,-0.0895 0.47416,-0.0163 0.54085,0.16461 0.0772,0.22491 0.28993,0.17456 0.67368,-0.16869 0.53109,-0.47031 0.6135,-0.47279 1.61641,-0.0316 l 1.05735,0.46614 -0.96094,0.23958 c -0.52702,0.13091 -1.88416,0.28573 -3.01547,0.34589 -1.13238,0.0554 -2.27371,0.11859 -2.53554,0.13255 -0.74349,0.044 -0.56478,0.48827 0.27185,0.67532 0.41585,0.0912 1.00119,0.35976 1.30428,0.5929 0.4446,0.34579 0.47438,0.46847 0.16473,0.66123 -0.50476,0.30958 -0.17874,1.11157 0.45446,1.11157 0.36571,0 0.49665,0.20351 0.48835,0.7519 -0.007,0.66128 0.0839,0.74348 0.74191,0.67349 0.66788,-0.0675 0.75014,0.009 0.72383,0.68594 -0.0179,0.46618 -0.0797,0.57738 -0.15642,0.28742 -0.0675,-0.26518 -0.31367,-0.47833 -0.54518,-0.47833 -0.25938,0 -0.36139,0.1548 -0.26757,0.40585 0.13093,0.34021 0.0675,0.35162 -0.38204,0.0691 -0.29572,-0.18682 -0.53863,-0.59535 -0.53863,-0.91229 0,-0.31544 -0.21493,-0.76422 -0.48012,-0.99472 -0.55494,-0.4842 -2.83681,-0.87616 -3.63467,-0.62347 -0.81601,0.25943 -0.71977,1.43953 0.1491,1.83724 0.41424,0.1868 0.63899,0.46847 0.55252,0.69159 -0.21499,0.55927 0.67529,1.773 1.16437,1.58849 0.22313,-0.0872 0.63492,0.044 0.90901,0.29567 0.28988,0.26107 0.77409,0.39607 1.15625,0.32367 0.44054,-0.0839 0.76163,0.044 0.97326,0.37794 0.1952,0.31122 0.2092,0.50234 0.0375,0.50234 -0.48665,0 -0.29738,0.54671 0.20497,0.57881 0.45626,0.0317 0.45626,0.0374 0,0.15642 -0.6455,0.1689 -0.60519,0.4702 0.16726,1.30433 0.66366,0.7181 1.54557,0.93879 1.54557,0.39034 0,-0.21742 0.1185,-0.21075 0.3977,0.0236 0.21904,0.1812 0.5369,0.24706 0.70324,0.14259 0.1647,-0.10171 0.54681,0.0316 0.84068,0.29959 0.42834,0.38793 0.60537,0.41586 0.87294,0.14503 0.26922,-0.26922 0.15074,-0.50644 -0.55662,-1.14379 -0.76992,-0.69344 -0.81858,-0.80461 -0.34343,-0.80461 0.72791,0 0.72791,-0.8547 0,-1.50925 -0.63492,-0.57482 -0.56326,-1.50623 0.30553,-3.91065 0.59534,-1.65847 0.68916,-3.51781 0.17865,-3.69728 -0.18856,-0.0675 -0.26106,-0.21091 -0.16299,-0.31798 0.30547,-0.33185 1.75057,0.58474 2.52884,1.61077 0.67349,0.8828 0.8703,0.97497 2.08494,0.97497 1.47983,0 1.52593,0.0578 1.78696,2.16313 0.205,1.63214 0.43388,1.95983 1.66663,2.38237 0.81857,0.2832 1.10347,0.28988 1.26646,0.0343 0.12274,-0.19272 0.21335,0.0398 0.21335,0.5592 0.005,0.9831 -0.3863,1.1379 -1.24435,0.4867 -0.29306,-0.22152 -0.90249,-0.4061 -1.35701,-0.41017 -1.22197,-0.0123 -1.5942,0.76585 -1.35866,2.83274 0.25516,2.21924 0.68593,2.98504 2.02815,3.58859 0.61513,0.27761 1.1158,0.60105 1.1158,0.71814 0,0.12011 0.43389,0.37385 0.96506,0.56308 0.64969,0.23559 1.28461,0.81196 1.94011,1.7656 0.53844,0.77816 1.27471,1.57438 1.64022,1.76712 0.36406,0.19927 0.61348,0.40587 0.55091,0.47011 -0.0619,0.0619 -0.38204,-0.0316 -0.7098,-0.20659 -0.32776,-0.17459 -0.66123,-0.25373 -0.74197,-0.17296 -0.21735,0.21905 1.56379,1.78684 2.71173,2.38218 0.555,0.28739 1.08365,0.64739 1.17993,0.80055 0.0943,0.1548 0.5345,0.2816 0.97918,0.2816 0.44217,0 0.80611,0.0977 0.80611,0.2173 0,0.32363 1.63624,0.81612 2.78247,0.83837 0.69998,0.0138 1.21703,-0.18291 1.72763,-0.65707 0.40187,-0.37223 0.9091,-0.67369 1.12568,-0.67369 0.21904,0 0.39774,-0.12441 0.39774,-0.27501 0,-0.15063 0.24291,-0.27342 0.54262,-0.27342 0.97088,0 4.05717,-1.42708 4.375,-2.02405 0.17873,-0.32776 0.60852,-0.59534 1.00543,-0.6192 0.63898,-0.0375 0.65714,-0.004 0.26269,0.43235 -0.23467,0.26093 -0.42817,0.67926 -0.42817,0.93048 0,0.25351 -0.12678,0.46033 -0.27589,0.46033 -0.15072,0 -0.275,0.19681 -0.275,0.44053 0,0.33998 0.20506,0.41425 0.89258,0.31367 0.48832,-0.0659 1.10595,-0.21497 1.36695,-0.32937 0.3516,-0.15318 0.73375,0.0838 1.47979,0.91081 0.64885,0.72544 1.32823,1.17991 1.92357,1.2927 1.75972,0.32776 0.73038,1.484 -1.13804,1.27472 -0.73365,-0.0815 -1.44345,0.0261 -1.99187,0.31128 -0.72218,0.37217 -0.87862,0.63905 -1.01699,1.7434 -0.0897,0.71545 -0.23548,1.61061 -0.32032,1.98609 -0.33348,1.50609 -0.18281,2.27347 0.55331,2.80888 0.39527,0.28981 0.72384,0.70975 0.72384,0.9345 0,0.24291 0.19438,0.36977 0.47847,0.31123 0.3755,-0.0733 0.45617,-0.30543 0.37385,-1.04892 -0.0595,-0.52294 -0.1203,-1.85539 -0.13092,-2.9653 -0.0212,-1.77707 0.048,-2.07687 0.59535,-2.51907 0.81602,-0.65959 3.20487,-1.10746 4.58,-0.85803 l 1.09769,0.20093 -0.7559,0.65547 c -0.41417,0.36409 -0.75184,0.90495 -0.75184,1.2064 0,0.30146 -0.17291,0.73956 -0.38211,0.97922 -0.21077,0.23696 -0.47014,0.85045 -0.57883,1.36107 -0.18865,0.89098 -0.16888,0.91891 0.50064,0.75189 0.60684,-0.15073 0.70736,-0.0773 0.78388,0.57475 l 0.0847,0.75177 0.61513,-0.66529 c 0.50069,-0.53705 0.61758,-0.5773 0.61758,-0.2009 0,0.25349 -0.13502,0.46278 -0.30387,0.46278 -0.1787,0 -0.25356,0.28574 -0.17456,0.68589 0.0693,0.37629 0.0334,0.68588 -0.0822,0.68588 -0.11866,0 -0.29155,0.52296 -0.38787,1.1644 -0.35243,2.31959 -0.4587,2.61531 -0.9849,2.7544 -0.75178,0.19681 -0.68346,1.00957 0.0838,1.02122 0.59945,0.009 0.60028,0.0179 0.0652,0.31774 -0.29891,0.17133 -0.63899,0.44624 -0.7477,0.60943 -0.13831,0.2066 -0.20252,0.20904 -0.20668,0.005 -0.004,-0.16051 -0.79464,-0.45032 -1.75723,-0.64144 -1.84784,-0.36816 -2.44072,-0.24129 -3.20329,0.68915 -0.3598,0.43402 -0.31534,0.45871 0.54681,0.28982 0.64969,-0.13092 1.13802,-0.0537 1.60247,0.24966 0.39772,0.26106 0.92881,0.37222 1.32652,0.27166 0.39201,-0.0976 0.6596,-0.044 0.6596,0.12849 0,0.19519 0.41178,0.23559 1.19402,0.11848 0.9503,-0.14071 1.22773,-0.0895 1.3628,0.25537 0.20673,0.54274 1.0228,0.5525 2.71827,0.0375 1.26399,-0.3863 1.30266,-0.37979 1.30266,0.17867 0,0.3153 0.21497,0.73362 0.48012,0.93694 0.43646,0.33192 0.41423,0.36571 -0.25777,0.37384 -0.87613,0.009 -1.07377,0.25132 -0.86217,1.06001 0.12605,0.47986 0.36566,0.5994 1.28794,0.61513 0.62333,0.0137 0.97903,0.0838 0.79217,0.16049 -0.19025,0.0756 -0.34343,0.30797 -0.34343,0.51864 0,0.98897 -2.81457,1.773 -3.76975,1.05159 -0.97087,-0.73605 -2.81044,-0.27328 -2.81044,0.70732 0,0.29005 -0.12194,0.59964 -0.27342,0.69183 -0.49243,0.3039 -0.28991,0.95928 0.30136,0.95928 0.34426,0 0.63165,-0.21893 0.7181,-0.54667 0.0774,-0.29983 0.27332,-0.54926 0.43147,-0.54926 0.15894,0 0.51305,-0.2052 0.78393,-0.45056 0.46277,-0.41587 0.5105,-0.41587 0.66948,0 0.0929,0.24536 0.34335,0.45056 0.55502,0.45056 0.45452,0 0.50396,0.43811 0.0839,0.69981 -0.16471,0.0998 -0.23714,0.41173 -0.16471,0.68932 0.0929,0.3614 -0.13664,0.6653 -0.80036,1.0573 -0.93713,0.55251 -1.2245,1.10339 -0.58958,1.12806 0.55904,0.022 -2.0365,1.27229 -3.0814,1.48971 -0.52949,0.10892 -2.31807,0.85233 -3.97647,1.65264 -1.66094,0.80031 -3.29552,1.53579 -3.63474,1.63612 -0.69422,0.20356 -0.83661,0.69183 -0.20759,0.69183 0.22487,0 0.41262,0.12443 0.41262,0.27328 0,0.15073 0.18525,0.27352 0.4101,0.27352 0.22644,0 0.41001,-0.12279 0.41001,-0.27352 0,-0.14885 0.33934,-0.27491 0.756,-0.27491 0.41171,-0.001 1.1232,-0.19682 1.57605,-0.43647 1.10595,-0.58125 3.70066,-0.85804 3.70066,-0.39445 0,0.21497 0.18119,0.27339 0.48089,0.15642 0.26267,-0.0994 1.89807,-0.48418 3.63227,-0.8564 1.73252,-0.36794 3.39998,-0.78635 3.70144,-0.92637 1.34876,-0.63329 2.71408,-1.10338 3.20077,-1.10338 0.2915,0 0.89424,-0.18868 1.33641,-0.41831 0.72794,-0.37629 0.80786,-0.37629 0.80786,0 0,0.22881 0.12681,0.41831 0.2775,0.41831 0.14902,0 0.27338,-0.18705 0.27338,-0.41017 0,-0.22474 0.21578,-0.41155 0.48257,-0.41155 0.26757,0 1.16024,-0.25782 1.98862,-0.57315 0.82595,-0.31388 1.94172,-0.66387 2.47859,-0.77584 1.09768,-0.22475 3.82252,-1.63203 3.82252,-1.97633 0,-0.31123 -3.12419,0.38224 -5.61929,1.24842 -0.30136,0.10552 -0.0846,-0.0912 0.47678,-0.44053 0.56243,-0.34837 1.02687,-0.78973 1.02687,-0.97897 0.002,-0.18704 0.13093,-0.34185 0.28409,-0.34185 0.15315,0 0.80447,-0.47686 1.43936,-1.06381 0.63655,-0.58721 2.45394,-1.83725 4.03827,-2.77687 1.58434,-0.94102 3.26498,-2.07666 3.73932,-2.5229 0.54265,-0.51319 0.92885,-0.7016 1.0441,-0.51481 0.26683,0.4324 -0.0717,0.84827 -0.54262,0.66797 -0.38046,-0.14502 -0.44468,-0.044 -0.51056,0.79624 -0.0147,0.18845 -0.21573,0.48664 -0.43807,0.66122 -0.82263,0.64143 -0.0179,0.65552 1.82146,0.0398 1.91538,-0.64313 2.48272,-1.02937 1.97794,-1.33898 -0.16712,-0.1054 -0.0937,-0.24697 0.17705,-0.35406 0.25364,-0.0961 0.57645,-0.10171 0.71974,-0.0139 0.14492,0.0895 0.43147,0.022 0.64308,-0.15073 0.21084,-0.17703 0.76171,-0.32777 1.22616,-0.33997 0.61264,-0.0195 0.82427,-0.14503 0.77237,-0.4644 -0.044,-0.28574 0.13422,-0.44054 0.52456,-0.44648 0.71145,-0.009 3.38111,-2.1813 3.38111,-2.74781 0,-0.55667 -0.38044,-0.48835 -0.98485,0.17882 -0.28573,0.3153 -0.76583,0.69159 -1.06969,0.83662 -0.64886,0.30961 0.94699,-1.16601 3.34572,-3.08974 0.98238,-0.78808 2.05453,-1.96794 2.53131,-2.79072 0.85804,-1.46559 4.16093,-5.00564 5.80124,-6.21611 l 0.92722,-0.68611 -1.02932,1.40728 c -1.07215,1.46745 -1.19236,1.74505 -0.7724,1.74505 0.3615,0 5.07577,-6.27652 4.86662,-6.4815 -0.0956,-0.0936 -0.36149,-0.0163 -0.59124,0.17459 -0.58466,0.48663 -0.51878,0.2066 0.13093,-0.54274 0.5402,-0.62734 0.70488,-1.09595 0.38208,-1.09595 -0.0914,0 -0.80287,0.67765 -1.58021,1.50613 -0.77817,0.82593 -1.52751,1.50603 -1.66338,1.50603 -0.13668,0 -0.49242,0.21492 -0.78969,0.47843 -0.53277,0.47279 -0.53277,0.47032 -0.0822,-0.40997 0.29726,-0.57737 0.34585,-0.88862 0.14493,-0.88862 -0.17045,0 -0.23716,-0.19518 -0.14905,-0.42645 0.10617,-0.27759 0.0537,-0.35999 -0.14657,-0.2315 -0.63158,0.38631 0.0716,-0.42401 0.83828,-0.96675 l 0.77569,-0.55495 -0.0935,0.81602 c -0.15151,1.30691 0.36971,0.94452 1.29446,-0.90087 1.1018,-2.19945 1.36447,-2.52885 1.63786,-2.08503 0.14741,0.23557 0.62171,-0.11035 1.53412,-1.11729 1.48796,-1.63631 2.20355,-2.70174 3.4297,-5.08662 0.46607,-0.90251 1.10589,-1.91207 1.42456,-2.23724 0.96509,-0.9832 1.2813,-1.43121 1.69301,-2.42017 0.52291,-1.24422 0.51468,-1.88729 -0.0235,-1.68069 -0.32196,0.12441 -0.36149,0.0512 -0.16221,-0.31368 0.36147,-0.68182 1.40481,-5.76417 1.40481,-6.84707 0,-0.50478 0.26762,-1.49541 0.59536,-2.20364 0.66617,-1.44339 1.02355,-4.16172 0.54678,-4.16172 -0.16223,0 -0.43398,0.52296 -0.59948,1.1644 -0.49243,1.90553 -0.58712,2.17152 -0.7197,2.03478 -0.0691,-0.0692 0.0505,-1.08539 0.27585,-2.26199 0.36974,-1.95408 0.50396,-2.23004 1.60821,-3.25104 1.54811,-1.42952 2.01828,-3.10032 2.26368,-8.03366 0.15647,-3.18841 0.12845,-3.63063 -0.25198,-3.63063 -0.23469,0 -0.42984,0.18529 -0.42984,0.41004 0,0.2273 -0.18528,0.41181 -0.4076,0.41181 -0.22481,0 -0.41009,0.18519 -0.41009,0.40838 0,0.61512 -0.48502,0.49656 -0.69581,-0.16711 -0.22481,-0.70984 0.0997,-3.5327 0.40595,-3.5327 0.12436,0 0.30305,-0.52703 0.39938,-1.16766 0.12681,-0.82589 0.34997,-1.25249 0.76006,-1.43933 1.21705,-0.55922 1.84537,-5.60525 1.21295,-9.71678 -0.22151,-1.42708 -0.53443,-2.63919 -0.69583,-2.69525 -0.16057,-0.0505 -0.29315,-0.27332 -0.29315,-0.48254 0,-0.21572 -0.12435,-0.39028 -0.27586,-0.39028 -0.15068,0 -0.27338,0.18688 -0.27338,0.41418 0,0.51878 -1.13142,2.9793 -1.42705,3.10445 -0.35984,0.15067 -0.24704,0.64722 0.22315,0.99063 0.39032,0.28573 0.35987,0.37634 -0.27584,0.7905 -0.90911,0.59704 -0.92228,1.53571 -0.0398,2.36411 0.56901,0.53443 0.74769,0.5789 1.10424,0.28575 0.2347,-0.19518 0.50232,-0.27749 0.59947,-0.1811 0.27751,0.2791 -0.76415,3.73932 -1.12566,3.73932 -0.18856,0 -0.53276,0.90982 -0.8045,2.1228 -0.81852,3.66848 -1.05156,4.54548 -1.64033,6.23362 l -0.57888,1.64444 -0.28164,-1.48556 c -0.27173,-1.41299 -0.84239,-2.13276 -1.07213,-1.34711 -0.057,0.20089 -0.24951,0.89089 -0.42244,1.5299 -0.17457,0.64152 -0.41995,1.16434 -0.54432,1.16434 -0.12846,0 -0.70239,0.43238 -1.2788,0.9594 -0.57478,0.5311 -1.1158,0.95933 -1.19814,0.95516 -0.28986,-0.008 -1.93431,-3.89414 -1.93431,-4.56515 0,-0.36816 -0.1729,-1.24679 -0.38208,-1.95573 -0.45456,-1.53417 -1.04001,-4.86332 -1.01202,-5.76173 0.0109,-0.35244 -0.2775,-1.25657 -0.63901,-2.01424 -0.60854,-1.27305 -0.6316,-1.44595 -0.26678,-2.31064 0.21328,-0.5162 0.40347,-1.52007 0.4183,-2.23312 0.0334,-1.54817 0.42244,-2.99412 0.88605,-3.28068 0.68592,-0.42247 1.54231,-1.96234 1.54231,-2.7726 0,-1.04167 -0.48911,-2.14834 -1.04414,-2.36003 -0.5591,-0.21492 -0.82839,0.26762 -1.04661,1.86024 -0.19681,1.45342 -0.54678,1.40314 -1.04908,-0.15316 -0.2215,-0.67936 -0.44468,-0.89269 -0.95111,-0.89269 -0.52452,0 -0.82426,0.31126 -1.44101,1.50781 -0.42905,0.82585 -0.90088,1.54804 -1.05321,1.59579 -0.15318,0.0513 -0.57888,0.72961 -0.94862,1.50782 -0.36974,0.77728 -0.97333,1.73254 -1.33482,2.12032 -0.36151,0.38629 -0.74197,0.97337 -0.84816,1.30108 -0.10399,0.3269 -0.31538,0.59704 -0.47268,0.59704 -0.15562,0 -0.22068,0.16874 -0.13998,0.37801 0.0797,0.20907 -0.15151,0.81846 -0.5196,1.35534 -0.36481,0.53696 -0.66122,1.10013 -0.66122,1.2508 0,0.15316 -0.4488,0.21741 -1.03756,0.14746 -0.69583,-0.0839 -1.38506,0.0529 -2.11053,0.4265 -0.59536,0.30304 -1.24262,0.55256 -1.43528,0.55256 -0.19269,0 -0.35411,0.1754 -0.35411,0.38865 0,0.21498 -0.37797,0.47189 -0.84074,0.5723 -0.46276,0.10171 -0.9066,0.36156 -0.98897,0.57727 -0.0838,0.2149 -0.39771,0.527 -0.69995,0.68513 -0.43147,0.22893 -0.70735,0.18365 -1.27058,-0.2265 -0.39525,-0.28574 -1.15528,-0.69576 -1.68067,-0.90496 -0.52866,-0.21575 -1.19977,-0.60685 -1.4954,-0.88271 -0.29726,-0.27088 -0.66534,-0.44628 -0.8218,-0.39038 -0.15893,0.0537 -0.8424,-0.061 -1.51845,-0.26513 -1.53574,-0.46278 -3.07726,-0.47842 -3.5104,-0.0456 -0.48256,0.48011 -0.43565,-0.42649 0.0716,-1.40565 0.4628,-0.89674 1.02931,-1.17998 1.9047,-0.96094 0.37954,0.0958 1.01119,-0.0773 1.64853,-0.4545 0.96263,-0.56497 1.02106,-0.67286 0.85805,-1.59264 -0.0931,-0.54259 -0.24126,-1.44761 -0.32693,-2.01411 -0.0939,-0.62339 -0.30552,-1.02692 -0.53854,-1.02692 -0.25773,0 -0.38454,-0.33345 -0.38454,-1.0318 0,-0.73199 -0.15481,-1.12725 -0.54682,-1.37261 -0.30134,-0.18783 -0.55087,-0.59953 -0.55087,-0.91082 0,-0.34581 -0.22151,-0.63153 -0.56075,-0.71966 -0.34014,-0.0871 -0.62339,-0.45048 -0.71561,-0.90996 -0.0937,-0.47674 -0.37629,-0.82015 -0.73779,-0.91481 -0.9124,-0.23309 -2.59719,-1.75479 -2.69355,-2.43416 -0.0529,-0.38042 -0.60687,-0.95107 -1.45749,-1.50776 -0.75428,-0.49488 -1.66424,-1.1685 -2.01831,-1.49787 -0.82014,-0.75755 -3.36139,-2.40039 -3.71545,-2.40039 -0.14905,0 -0.60274,-0.31947 -1.01202,-0.7114 -0.45206,-0.43566 -1.09106,-0.72794 -1.63784,-0.7535 -0.80452,-0.0383 -0.96094,0.0838 -1.51844,1.18991 -0.77573,1.54399 -0.97504,2.12036 -1.06965,3.12587 -0.0514,0.5574 -0.49658,1.18243 -1.45752,2.05693 -0.76009,0.69339 -1.45177,1.51186 -1.53988,1.82725 -0.0855,0.31379 -0.55919,0.74191 -1.04581,0.95933 -0.69003,0.30308 -0.97328,0.66534 -1.2648,1.62226 -0.63157,2.06933 -1.18577,3.01954 -1.8734,3.19087 -0.35576,0.0912 -0.83248,0.51876 -1.05732,0.95435 -0.22643,0.43397 -0.51461,0.7905 -0.64473,0.7905 -0.12851,0 -0.31208,0.27757 -0.40431,0.61511 -0.29321,1.05322 -1.90958,2.7224 -2.44073,2.51905 -0.25773,-0.097 -0.46776,-0.3657 -0.46776,-0.59537 0,-0.52699 1.42132,-3.0238 2.18716,-3.84391 0.31943,-0.33929 0.51213,-0.72956 0.42812,-0.8663 -0.20091,-0.32606 0.11533,-1.11738 0.44883,-1.11738 0.76994,0 1.75891,-1.67247 2.02242,-3.42561 0.14486,-0.9758 0.35575,-1.33733 0.98067,-1.70705 0.43809,-0.25856 1.06562,-1.02931 1.38921,-1.71031 0.32605,-0.67933 0.7263,-1.33072 0.88854,-1.43943 0.19681,-0.13663 0.1852,-0.20334 -0.044,-0.20497 -0.18282,-0.002 -0.26102,-0.19111 -0.17454,-0.41668 0.2091,-0.54024 0.64715,-0.52702 0.64715,0.0195 0,0.28822 0.20096,0.40181 0.61511,0.34167 0.40604,-0.0554 0.61679,-0.27498 0.61679,-0.63651 0,-0.33762 0.44223,-0.8424 1.16027,-1.32496 1.73668,-1.15777 2.70181,-2.15086 2.91092,-2.98337 0.29892,-1.21461 1.08534,-1.44102 2.59054,-0.76 0.70987,0.32193 1.47399,0.70241 1.69884,0.8407 0.22482,0.14081 0.59701,0.33184 0.82019,0.42241 1.78278,0.70986 3.46755,1.59511 3.64871,1.9162 0.1202,0.21081 0.46114,0.38378 0.7543,0.38378 0.39934,0 0.53439,-0.18862 0.53439,-0.76586 0,-0.42239 0.15314,-0.92474 0.34177,-1.11413 0.27499,-0.27747 0.2511,-0.39774 -0.12684,-0.61099 -0.25776,-0.14494 -0.40183,-0.43394 -0.32197,-0.64314 0.0782,-0.20749 -0.12597,-0.90334 -0.45618,-1.55053 -0.32772,-0.64314 -0.89673,-1.95981 -1.2566,-2.92739 -1.03343,-2.74378 -2.36007,-4.55702 -5.95606,-8.13575 -4.96952,-4.95229 -7.58565,-8.09376 -6.7392,-8.09376 0.42825,0 0.2899,-1.0491 -0.15149,-1.14626 -0.3582,-0.0756 -0.36146,-0.18117 -0.0236,-0.82841 0.44055,-0.84404 0.42247,-1.35129 -0.0693,-1.94583 -0.46277,-0.555 -0.13502,-1.74901 0.52457,-1.91783 0.47015,-0.12432 0.52125,-0.38866 0.48257,-2.56093 l -0.044,-2.42428 -1.12981,-1.09353 c -0.64067,-0.62336 -1.74496,-1.31508 -2.54529,-1.59998 -0.77986,-0.27339 -1.56952,-0.68348 -1.75725,-0.90744 -0.18862,-0.22481 -0.81605,-0.65137 -1.40077,-0.94863 -1.16601,-0.59948 -1.52252,-1.15944 -1.0721,-1.70045 0.34828,-0.42241 0.11117,-2.25956 -0.33763,-2.61529 -0.16881,-0.13094 -0.93874,-0.44632 -1.70868,-0.69581 -1.17832,-0.3862 -1.47731,-0.62749 -1.87339,-1.49952 -0.47011,-1.04579 -0.56069,-1.11413 -4.35194,-3.11595 -2.3221,-1.22861 -3.85052,-1.52422 -8.5466,-1.65928 -2.41602,-0.0667 -4.72994,-0.0692 -5.14412,-0.002 z m 21.50534,18.69082 c -0.22731,0.57477 -0.54265,-0.99145 -0.35408,-1.75726 0.10541,-0.42242 0.18119,-0.33761 0.33105,0.38621 0.10713,0.51466 0.11691,1.13142 0.0227,1.37105 z m -5.80868,3.82826 c 0,0.13257 -0.25524,0.30962 -0.56484,0.39031 -0.46278,0.12023 -0.50479,0.0756 -0.23966,-0.24128 0.3623,-0.43726 0.8045,-0.51876 0.8045,-0.14903 z m 3.95256,6.33237 c 0.56168,0 1.33896,1.03345 1.14959,1.52753 -0.12844,0.33758 -0.36152,0.39934 -0.92227,0.26104 -0.41252,-0.10038 -0.79464,-0.29977 -0.84079,-0.43807 -0.0512,-0.14084 -0.25356,-0.25366 -0.45284,-0.25366 -0.19435,0 -0.4077,-0.36807 -0.47189,-0.8144 -0.0979,-0.65299 -0.0146,-0.8218 0.44801,-0.88848 0.3121,-0.044 0.60682,0.0717 0.65545,0.26104 0.0472,0.19018 0.24623,0.345 0.43474,0.345 z m 66.49578,36.54496 c -0.26104,0.24128 -0.29975,0.19681 -0.16057,-0.191 0.0956,-0.27502 0.19268,-0.70903 0.21328,-0.95848 0.0236,-0.25201 0.0929,-0.16474 0.16057,0.1902 0.0676,0.35661 -0.0301,0.78803 -0.21328,0.95928 z m -0.25939,0.86051 c 0,0.52455 -0.17046,0.52455 -0.37138,0 -0.0872,-0.22723 -0.0424,-0.4125 0.10573,-0.4125 0.14659,0 0.26516,0.18527 0.26516,0.4125 z m -42.76703,2.01832 c 0.004,0.38622 0.0423,0.39201 0.26102,0.0399 0.34425,-0.54273 0.60529,-0.25201 1.64446,1.84538 0.46605,0.94452 0.96918,1.71278 1.11414,1.71278 0.14491,0 0.26351,0.15317 0.25775,0.34167 -0.005,0.19029 -0.3195,-0.0122 -0.70325,-0.44626 -0.87449,-0.99142 -2.61775,-1.26902 -3.88587,-0.6135 -0.46856,0.24127 -1.0417,0.36566 -1.27306,0.27755 -0.41013,-0.15484 -2.35592,1.59578 -2.35592,2.12116 0,0.13013 -0.13008,0.23722 -0.29149,0.23722 -0.16145,0 -0.21327,0.12181 -0.12025,0.2733 0.0912,0.15069 0.0375,0.2735 -0.1227,0.2735 -0.15813,0 -0.29317,-0.27597 -0.2948,-0.61512 -0.004,-0.49829 -0.0538,-0.53865 -0.26925,-0.20513 -0.22894,0.35411 -0.26762,0.34996 -0.27174,-0.0464 -10e-4,-0.2511 -0.15649,-0.52451 -0.34584,-0.60679 -0.23472,-0.0997 -0.14905,-0.29156 0.2758,-0.60286 0.33766,-0.24947 0.61513,-0.62088 0.61513,-0.82421 0,-0.20675 0.17294,-0.30146 0.39199,-0.21743 0.23141,0.0896 0.58714,-0.16054 0.88686,-0.625 0.27341,-0.4266 0.68098,-0.93952 0.90994,-1.14047 0.22725,-0.19845 0.28162,-0.29734 0.11934,-0.21492 -0.16297,0.0772 -0.29968,-0.0147 -0.29968,-0.2117 0,-0.19264 0.17704,-0.3516 0.38864,-0.3516 0.26104,0 0.34751,0.21493 0.26682,0.64481 -0.10539,0.55341 -0.0399,0.61927 0.45699,0.46855 0.74115,-0.22477 0.6934,-0.16886 0.97829,-1.1537 0.16714,-0.58705 0.14081,-0.8844 -0.0774,-0.97907 -0.22476,-0.0912 -0.20747,-0.20917 0.0676,-0.39932 0.49744,-0.33933 1.66836,0.3722 1.67658,1.01772 z m -41.95258,4.14695 c 0.12011,1.07376 0.25772,1.29279 1.09601,1.71113 1.24416,0.61926 2.33777,0.60852 2.97757,-0.0316 0.28167,-0.28168 0.98899,-0.60109 1.57863,-0.70977 0.58459,-0.11035 1.18742,-0.29736 1.33893,-0.41585 0.15067,-0.1203 0.70489,-0.28574 1.23436,-0.37223 0.52702,-0.0838 1.57772,-0.26928 2.32957,-0.41178 1.17254,-0.2174 1.48214,-0.1811 2.10553,0.26269 0.7641,0.54518 2.13523,0.6753 3.80355,0.37222 1.2624,-0.23139 1.43116,-0.007 2.15498,2.90024 0.71315,2.86638 0.53856,4.44499 -0.51059,4.5941 -0.37386,0.0513 -0.74355,-0.0815 -0.88028,-0.32207 -0.35405,-0.62908 -1.81979,-0.86211 -2.37484,-0.37792 -0.72791,0.63899 -1.69303,0.85479 -1.69303,0.37956 0,-0.78802 -1.43931,-0.97733 -2.13928,-0.2791 -0.42241,0.4225 -0.46604,0.41003 -0.60444,-0.18531 -0.1515,-0.64968 -0.82019,-1.10747 -0.82019,-0.56489 0,0.16475 -0.25606,0.55506 -0.56903,0.86636 -0.31124,0.31122 -0.49644,0.75176 -0.41167,0.97899 0.11696,0.30386 0.0196,0.36405 -0.39028,0.23148 -0.39037,-0.12443 -0.54518,-0.0456 -0.54518,0.27328 0,0.24293 0.12273,0.36977 0.2734,0.2776 0.14898,-0.0912 0.27341,-0.0398 0.27341,0.12016 0,0.16064 -0.18863,0.29155 -0.42408,0.29155 -0.32937,0 -0.40846,0.27498 -0.36075,1.22857 0.0358,0.6752 -0.0195,1.31256 -0.12428,1.41558 -0.1054,0.10539 -0.1902,0.044 -0.1902,-0.13095 0,-0.17539 -0.18529,-0.3179 -0.4085,-0.3179 -0.2248,0 -0.40999,0.18288 -0.40999,0.41008 0,0.22312 0.12259,0.41017 0.27331,0.41017 0.15154,0 0.27343,0.20496 0.27343,0.45446 0,0.36156 -0.10344,0.32771 -0.53857,-0.17124 -0.3014,-0.34177 -0.92636,-0.70154 -1.39738,-0.79799 l -0.85472,-0.17457 0.71143,-0.76577 c 0.4018,-0.43392 0.84818,-0.68183 1.02772,-0.57314 0.1729,0.1079 0.24292,0.0773 0.15482,-0.0619 -0.0871,-0.14093 0.33752,-0.79636 0.9445,-1.45593 0.94697,-1.02354 1.04159,-1.23023 0.65957,-1.44348 -0.24542,-0.13503 -0.37385,-0.36404 -0.28738,-0.50479 0.0872,-0.14085 0.044,-0.25781 -0.0997,-0.25781 -0.1449,0 -0.33346,0.18283 -0.41832,0.40604 -0.0872,0.23132 -0.33755,0.33595 -0.57718,0.24293 -0.29901,-0.11453 -0.42243,0.009 -0.42243,0.42404 0,0.70324 -0.7799,1.07953 -1.11991,0.541 -0.13091,-0.21079 -0.24292,-0.72128 -0.24707,-1.13553 0,-0.41423 -0.12676,-0.75176 -0.27747,-0.75176 -0.1491,0 -0.27344,0.0953 -0.27344,0.21485 0,0.11698 -0.3697,0.35411 -0.82017,0.52285 -0.55496,0.20926 -0.82422,0.49826 -0.82422,0.88278 0,0.31546 -0.17705,0.57312 -0.39441,0.57312 -0.57067,0 -0.83417,0.56898 -0.39444,0.84817 0.27491,0.17133 0.28573,0.23965 0.0358,0.24128 -0.18851,10e-4 -0.34169,0.24535 -0.34169,0.53687 0,0.29323 -0.12687,0.60935 -0.27922,0.70324 -0.51871,0.32198 -1.07544,2.06852 -0.91479,2.87304 0.12843,0.63167 0.005,0.93716 -0.58468,1.48388 -0.40595,0.37805 -1.16195,0.82592 -1.67488,0.99724 -0.51303,0.16712 -0.93303,0.43811 -0.93303,0.59698 0,0.15642 -0.27744,0.5566 -0.6151,0.89097 -1.01947,0.98897 -1.58017,1.77287 -1.58017,2.20528 0,0.62326 -0.53699,0.48256 -0.80457,-0.21091 -0.18274,-0.47674 -0.0871,-0.774 0.42239,-1.31671 0.35992,-0.38608 0.65551,-0.89416 0.65551,-1.12809 0,-0.66123 1.07383,-1.8717 1.66674,-1.8717 0.28981,0 0.52702,-0.16306 0.52702,-0.35818 0,-0.19931 0.55901,-0.75021 1.23596,-1.2302 1.25086,-0.88283 1.42707,-1.24272 0.96674,-1.97226 -0.21742,-0.34589 -0.34591,-0.31122 -0.83418,0.21335 -0.31783,0.33997 -0.70323,0.54089 -0.85803,0.44461 -0.19109,-0.11691 -0.18525,-0.26923 0.0163,-0.4702 0.16295,-0.16472 0.29964,-0.50892 0.29964,-0.76413 0,-0.64731 -1.38755,-2.16744 -1.98043,-2.16744 -0.35978,0 -0.48665,-0.21486 -0.48665,-0.82254 0,-0.91079 -0.5162,-1.08785 -1.19395,-0.41017 -0.22726,0.22733 -0.49493,0.41017 -0.59534,0.41017 -0.4183,0 -1.77543,1.16192 -1.77543,1.5217 0,0.48663 1.3151,0.83661 1.69709,0.45462 0.34349,-0.34184 2.19131,-0.0985 2.48688,0.3277 0.33189,0.47671 -0.0358,1.52747 -0.75751,2.17306 -1.48558,1.32503 -2.10891,1.82726 -2.28186,1.8339 -0.10172,0.004 -0.54681,0.49647 -0.98899,1.09603 -0.44216,0.60107 -0.96675,1.08932 -1.16437,1.08932 -0.19765,0 -0.35977,0.12443 -0.35977,0.27517 0,0.15061 0.13093,0.27327 0.29554,0.27327 0.39777,0 0.0137,1.14955 -0.51459,1.53579 -0.31537,0.22888 -0.62754,0.2009 -1.26236,-0.11441 -1.61647,-0.80217 -1.8017,-0.87456 -2.17142,-0.87456 -0.2051,0 -0.76586,0.19681 -1.24841,0.43647 -1.0714,0.53435 -1.67488,0.34332 -1.67488,-0.53278 0,-0.78966 -0.32938,-1.08126 -1.78114,-1.58183 -1.44524,-0.49664 -2.93485,-1.83147 -2.73638,-2.44908 0.16309,-0.5146 -1.39087,-2.28174 -1.78939,-2.03629 -0.12687,0.0772 -0.41424,-0.044 -0.64305,-0.27349 -0.47278,-0.47258 -1.21624,-0.52702 -2.18969,-0.15483 -0.90493,0.34347 -1.82967,0.066 -1.82967,-0.54923 0,-0.6093 0.26513,-0.78968 1.27878,-0.86621 0.42834,-0.0318 0.93061,-0.20671 1.11749,-0.38627 0.22475,-0.22151 0.5872,-0.25109 1.09606,-0.0937 2.99731,0.92636 3.66519,0.95688 8.84551,0.36979 0.82602,-0.0939 2.16157,-0.15893 2.95959,-0.14253 1.01531,0.0195 1.49539,-0.0871 1.59821,-0.3582 0.0814,-0.21493 0.32367,-0.32195 0.53864,-0.23965 0.2594,0.0997 0.38781,-0.0415 0.38781,-0.43641 0,-0.32187 -0.18121,-0.65293 -0.40026,-0.73611 -0.31367,-0.12443 -0.33346,-0.27923 -0.0937,-0.74607 0.80786,-1.57033 0.81845,-1.62227 0.45042,-1.85774 -0.20344,-0.12841 -0.56898,-0.233 -0.8161,-0.23708 -0.24701,0 -0.52448,-0.19682 -0.6176,-0.42995 -0.0912,-0.24535 -0.0456,-0.35407 0.11285,-0.25356 0.14903,0.0912 0.68768,-0.27346 1.19411,-0.81025 0.5105,-0.5403 1.18824,-0.97753 1.52007,-0.97753 1.09354,0 3.03934,-1.06305 3.03934,-1.65839 0,-0.34592 0.2792,-0.6539 0.75176,-0.83663 0.41587,-0.1589 1.31105,-0.57474 1.98873,-0.9231 1.70776,-0.88352 2.01739,-0.79134 2.18218,0.67608 z m 5.39848,5.13096 c -0.43473,0.0635 -0.72212,0.25776 -0.66204,0.43811 0.12278,0.36972 0.16311,0.37222 1.91207,0.0733 2.4185,-0.41749 1.25991,-0.89255 -1.25003,-0.51211 z m 9.67895,0.0913 c 0,0.39608 0.71806,1.09199 0.91896,0.89102 0.0872,-0.0871 0.47189,0.044 0.8564,0.29559 0.71316,0.46853 0.94861,0.25782 0.36318,-0.32613 -0.18117,-0.18111 -0.21902,-0.32772 -0.0839,-0.32772 0.13257,0 0.006,-0.18277 -0.28741,-0.40427 -0.62174,-0.47019 -1.76636,-0.5525 -1.76636,-0.12849 z m -6.40488,0.6695 c 0.2051,0.52451 0.37633,0.52451 0.37633,0 0,-0.22733 -0.12014,-0.41169 -0.26517,-0.41169 -0.14734,0 -0.19681,0.18273 -0.11116,0.41169 z m -14.70606,0.95928 c 0,0.34998 0.19512,0.34998 0.41168,0 0.0915,-0.15318 0.0374,-0.27329 -0.1226,-0.27329 -0.15817,0 -0.28908,0.11849 -0.28908,0.27329 z m -5.78978,5.11622 c -0.0179,0.12678 -0.007,0.34747 0.0235,0.49812 0.0316,0.15066 0.0537,0.7823 0.0537,1.40729 0,0.87861 0.0993,1.12155 0.45194,1.09354 0.35414,-0.0277 0.43239,0.17867 0.36814,0.975 -0.0619,0.78799 0.0415,1.07127 0.48826,1.31093 0.49503,0.26758 0.56335,0.22726 0.54682,-0.32197 -0.009,-0.34578 -0.11686,-0.87443 -0.2355,-1.17181 -0.12264,-0.30135 -0.11694,-0.82253 0.007,-1.15772 0.17291,-0.46281 -0.0914,-2.05047 -0.40854,-2.44073 -0.16212,-0.19846 -1.27391,-0.36154 -1.29776,-0.19265 z m -6.12725,1.7169 c -0.24125,0.39031 0.066,0.83661 0.57481,0.83661 0.23711,0 0.37791,-0.19111 0.32354,-0.45625 -0.10377,-0.55088 -0.6513,-0.78055 -0.89835,-0.38036 z m 1.49953,0.54681 c 0,0.15887 0.12429,0.2898 0.27491,0.2898 0.35,0 0.35,-0.19274 0,-0.41015 -0.1523,-0.092 -0.27491,-0.0383 -0.27491,0.12035 z m 22.78748,-5.38544 c -0.22479,0.22312 -0.30309,0.19267 -0.30309,-0.11447 0,-0.54675 0.36733,-0.9149 0.50235,-0.50475 0.0577,0.17287 -0.0316,0.45197 -0.19926,0.61922 z m 30.49008,3.82742 c 0.40187,0.29554 0.42244,0.4644 0.12844,1.23433 -0.18688,0.48826 -0.43391,0.88846 -0.55252,0.88846 -0.11939,0 -0.21576,0.15651 -0.21576,0.34749 0,0.19275 -0.24701,0.80788 -0.54841,1.36945 -0.30137,0.56161 -0.54925,1.19243 -0.54925,1.40312 0,0.20681 -0.18689,0.53116 -0.41005,0.71976 -0.22647,0.18693 -0.41172,0.63329 -0.41172,0.99142 0,0.47271 -0.15318,0.64977 -0.56161,0.64977 -0.3055,0 -0.86872,0.30965 -1.24258,0.68595 -0.37961,0.37792 -0.79792,0.68589 -0.92885,0.68589 -0.13257,0 -0.46775,0.28574 -0.74111,0.63329 -0.67114,0.84806 -1.34305,1.06959 -1.7532,0.57312 -0.24944,-0.29737 -0.25934,-0.56087 -0.044,-1.01121 0.16062,-0.33184 0.36568,-0.91247 0.45216,-1.29044 0.0838,-0.3763 0.2478,-0.81195 0.36392,-0.96511 0.42987,-0.58127 3.17279,-2.59717 3.53182,-2.59717 0.20748,0 0.37629,-0.18517 0.37629,-0.41001 0,-0.22486 -0.19104,-0.41171 -0.42654,-0.41171 -0.34421,0 -0.40601,-0.29983 -0.34177,-1.57454 0.0733,-1.4476 0.13836,-1.58597 0.76831,-1.6683 0.37793,-0.0496 0.80453,-0.20667 0.9445,-0.34168 0.37959,-0.36652 1.61728,-0.31374 2.16239,0.0872 z m -26.40904,0.75176 c 0,0.15074 -0.19431,0.27506 -0.42658,0.27506 -0.23467,0 -0.35407,-0.12432 -0.25858,-0.27506 0.21902,-0.35405 0.68516,-0.35405 0.68516,0 z m 3.50219,1.75158 c 1.0935,0.69987 3.62649,1.18407 3.62649,0.69323 0,-0.15643 0.12845,-0.20659 0.28573,-0.10834 0.15731,0.097 0.46855,0.0277 0.68596,-0.15479 0.22476,-0.18519 1.19395,-0.32939 2.19698,-0.32939 1.48794,0 1.90791,0.10344 2.45466,0.61925 0.82186,0.76995 0.57893,1.34893 -0.88683,2.11886 -0.57067,0.29964 -1.71445,0.9025 -2.54535,1.34711 -1.61636,0.86048 -2.18701,0.87043 -3.33326,0.0578 -0.88858,-0.63164 -1.60001,-0.66544 -1.60001,-0.0797 0,0.24128 -0.25531,0.50479 -0.57066,0.58719 -0.39036,0.10172 -0.52866,0.30798 -0.43566,0.6596 0.0931,0.35976 -0.0146,0.5105 -0.36557,0.5105 -0.27587,0 -0.56324,0.15479 -0.64148,0.34169 -0.18283,0.44639 -1.25992,-0.8408 -1.26806,-1.50933 -0.006,-0.26515 -0.25617,-0.69347 -0.55921,-0.95113 -0.30134,-0.26098 -0.54676,-0.80779 -0.54676,-1.23019 0,-0.41834 -0.11283,-0.76177 -0.24374,-0.76177 -0.4628,0 -0.56074,-1.22034 -0.15318,-1.84539 0.57895,-0.87534 2.50083,-0.85966 3.89995,0.035 z m 4.80893,6.29771 c 0.0797,0.20921 0.0163,0.50642 -0.1408,0.66366 -0.36561,0.36815 -1.59006,-0.15067 -1.59006,-0.67349 0,-0.49252 1.54235,-0.48252 1.73086,0.009 z m -19.97949,11.55225 c 0.64718,0.49258 1.57029,0.5205 2.02649,0.0619 0.23558,-0.23549 0.40015,-0.24942 0.53444,-0.0481 0.1079,0.16049 0.39608,0.36564 0.64565,0.4587 0.28738,0.1054 0.50061,0.5929 0.59123,1.34874 0.0772,0.65145 0.36144,1.82722 0.63152,2.61531 0.41012,1.1965 0.62753,1.46168 1.32914,1.64043 0.73606,0.1868 0.64144,0.22883 -0.80787,0.35161 -0.95934,0.0797 -1.6906,0.0277 -1.75728,-0.13093 -0.19266,-0.46278 -0.71139,-0.88448 -1.32651,-1.0779 -0.61759,-0.19519 -1.04754,-1.05567 -0.76016,-1.52184 0.18868,-0.29969 -0.31938,-1.40308 -0.78966,-1.71526 -0.16462,-0.11287 -0.57724,-0.20344 -0.91643,-0.20669 -0.63736,-0.004 -0.82601,-0.39038 -0.34182,-0.68916 0.4118,-0.25537 0.32613,-0.68344 -0.13827,-0.68344 -0.2248,0 -0.41016,0.12255 -0.41016,0.27327 0,0.15074 -0.30797,0.27343 -0.6859,0.27343 -0.37792,0 -0.68589,-0.12269 -0.68589,-0.27343 0,-0.15072 0.18518,-0.27327 0.41003,-0.27327 0.22733,0 0.41415,-0.18868 0.41415,-0.41181 -0.003,-0.53435 1.32418,-0.53027 2.0373,0.008 z m 1.79929,3.31693 c 0,0.31794 0.18681,0.73627 0.41583,0.92636 0.64719,0.54273 0.7098,0.19519 0.12016,-0.70158 -0.47343,-0.71875 -0.53354,-0.74519 -0.53599,-0.22478 z m -4.95313,-0.73938 c 0.32192,0.20345 0.33188,0.36802 0.0577,0.88689 -0.19926,0.38199 -0.2733,0.4281 -0.18518,0.1243 0.0912,-0.30965 -0.0416,-0.65959 -0.33186,-0.88446 -0.54107,-0.40666 -0.15898,-0.517 0.45862,-0.12673 z m 9.78843,0.97906 c 0.23713,0.61758 -0.42663,1.3192 -0.88442,0.9372 -0.28989,-0.23557 -0.29559,-0.41017 -0.0374,-0.82441 0.39525,-0.63409 0.70897,-0.67182 0.92226,-0.11279 z m 10.79133,2.03651 c 0,0.37216 -0.48419,0.61511 -0.65706,0.33348 -0.16468,-0.26515 0.0716,-0.59291 0.42823,-0.59291 0.1268,0 0.22883,0.11603 0.22883,0.25943 z m -8.12577,1.24992 c 0.20089,0.52449 0.0595,0.52449 -0.37385,0 -0.19845,-0.23707 -0.22317,-0.41003 -0.0611,-0.41003 0.15317,-0.002 0.34754,0.18273 0.43566,0.41003 z m -5.23719,1.33723 c 0.22723,0.33356 0.15891,3.18274 -0.0756,3.18274 -0.0814,0 -0.52452,-0.34592 -0.9848,-0.76585 -1.08533,-0.99143 -1.41147,-2.16891 -0.73371,-2.6779 0.51717,-0.38856 1.44359,-0.25599 1.79521,0.26101 z m 8.42806,-0.25105 c 0,0.35 -0.77403,0.97083 -1.21708,0.97083 -0.27914,0 -0.16228,-0.70732 0.17541,-1.04159 0.45446,-0.45627 1.04167,-0.41424 1.04167,0.07 z m -6.6989,4.4244 c 1.03927,0.79379 1.23274,1.47561 0.41178,1.47561 -0.53686,0 -1.39076,-0.671 -1.39076,-1.09358 0,-0.12667 -0.0733,-0.42812 -0.16479,-0.66369 -0.2371,-0.61677 0.0619,-0.54258 1.14377,0.28166 z m 8.48168,0.65551 c -0.0912,0.1491 -0.37794,0.26515 -0.63331,0.25521 -0.38035,-0.0179 -0.3639,-0.0619 0.0838,-0.25521 0.73368,-0.31796 0.74197,-0.31796 0.54843,0 z m 1.36933,1.47807 c 0,0.50885 -0.15886,0.5731 -1.38751,0.5731 -1.24251,0 -1.37759,-0.0554 -1.28285,-0.54681 0.0846,-0.45031 0.33508,-0.55495 1.3875,-0.57717 1.13056,-0.0219 1.28286,0.0415 1.28286,0.55088 z m 53.72153,5.06582 c 0.0822,0.13092 -0.0236,0.3863 -0.23471,0.56089 -0.31619,0.26106 -0.36147,0.21742 -0.23877,-0.24129 0.15974,-0.62083 0.25032,-0.67937 0.47348,-0.3196 z m -43.9528,8.05186 c -0.26932,0.26932 -0.30302,0.23544 -0.15318,-0.15312 0.10172,-0.27185 0.25608,-0.42258 0.34011,-0.33772 0.0854,0.0815 0,0.30552 -0.18693,0.49084 z m 32.04562,7.70348 c 0,0.0538 -0.21492,0.27165 -0.47843,0.47843 -0.43397,0.34003 -0.44385,0.32935 -0.10161,-0.10388 0.35494,-0.45382 0.58058,-0.60125 0.58058,-0.37385 z M 312.871,380.53357 c 0,0.20658 -3.39102,1.2284 -3.54252,1.06543 -0.16641,-0.18109 -0.0756,-0.22311 1.89803,-0.92065 1.09606,-0.38852 1.64449,-0.43648 1.64449,-0.14478 z m -5.56904,-143.49969 c -0.0593,0.10843 -0.12598,0.69993 -0.14495,1.31506 -0.0293,0.91237 0.1194,1.26237 0.79876,1.9137 0.72542,0.69171 0.8094,0.92473 0.66123,1.80173 -0.19682,1.1512 0.44633,2.7034 1.1141,2.7034 0.76258,0 2.88291,1.16435 3.6331,1.99031 3.02129,3.34897 3.04353,3.36956 3.44374,2.9389 0.53436,-0.56487 0.76414,-2.63505 0.33183,-2.99574 -0.18774,-0.15481 -0.42243,-0.20093 -0.52129,-0.10355 -0.0995,0.0997 -0.18112,-0.14902 -0.18112,-0.55088 0,-0.4035 -0.12435,-0.73207 -0.27503,-0.73207 -0.15153,0 -0.27342,-0.12022 -0.27342,-0.26926 0,-0.31785 -1.83381,-3.28063 -3.42808,-5.54186 -0.83415,-1.18578 -1.38913,-1.6708 -2.31222,-2.02242 -1.39242,-0.53441 -2.68526,-0.73617 -2.84665,-0.4463 z m 14.61795,6.89561 c 0,0.16058 0.1219,0.29151 0.27342,0.29151 0.35162,0 0.35162,-0.19434 0,-0.41008 -0.15069,-0.0923 -0.27342,-0.0414 -0.27342,0.11857 z m -64.98219,16.98792 c 0,0.16055 0.1267,0.2915 0.27499,0.2915 0.35406,0 0.35406,-0.19435 0,-0.4101 -0.14991,-0.0939 -0.27499,-0.0415 -0.27499,0.1186 z m -45.97934,2.41601 c -3.04772,4.75794 -6.83311,13.34657 -8.67256,19.67399 -2.9276,10.08411 -4.02504,21.60339 -2.95309,31.0344 0.44649,3.91063 0.93312,4.15354 0.85804,0.42414 -0.13502,-6.89726 -0.0838,-9.40225 0.20088,-9.74563 0.16727,-0.19928 0.44649,-1.2244 0.62108,-2.276 0.17296,-1.05323 0.42809,-2.12539 0.56472,-2.38641 0.13526,-0.26102 0.25131,-1.06553 0.25374,-1.78114 0.004,-0.71963 0.1746,-2.04381 0.38199,-2.95128 0.20928,-0.90497 0.45626,-2.25953 0.55251,-3.0155 0.30553,-2.41683 2.55702,-7.88039 4.01284,-9.75048 0.41995,-0.54678 1.3349,-2.18053 2.0265,-3.63477 0.6959,-1.45341 1.36933,-2.6433 1.5019,-2.6433 0.28737,0 0.50072,-0.51463 1.00551,-2.41271 0.55903,-2.09325 0.48663,-2.70174 -0.44624,-3.86203 l -0.83418,-1.0375 0.71545,-2.1674 c 0.79379,-2.41271 1.48563,-5.0461 1.32513,-5.0461 -0.0577,0.001 -0.55927,0.70977 -1.11422,1.57772 z m 110.68569,17.32964 c 0.54101,0.34996 1.17422,0.34996 0.96097,0 -0.0913,-0.14901 -0.43972,-0.2734 -0.76992,-0.2693 -0.48835,0.001 -0.52455,0.0522 -0.19105,0.2693 z m -15.90174,1.80585 c 0,0.48254 0.59124,0.39776 0.75999,-0.11117 0.0595,-0.17869 -0.0847,-0.32606 -0.32605,-0.32606 -0.23714,8.4e-4 -0.43394,0.2001 -0.43394,0.43723 z m -83.22424,9.99508 c -0.0978,0.16059 -0.11459,0.35822 -0.0342,0.43809 0.19519,0.19682 0.72953,-0.14907 0.72953,-0.47015 0.002,-0.35161 -0.47172,-0.32938 -0.69491,0.0317 z m 0.97089,1.07953 c 0,0.35245 0.19514,0.35245 0.41155,0 0.0915,-0.14901 0.0399,-0.27494 -0.12255,-0.27494 -0.15806,0 -0.289,0.12428 -0.289,0.27494 z m -1.43954,1.77135 c -0.55088,0.7534 -0.59534,0.9692 -0.20659,0.9692 0.14911,0 0.27328,-0.14334 0.27328,-0.3204 0,-0.17705 0.20684,-0.54842 0.45626,-0.8242 0.24942,-0.27512 0.34179,-0.49499 0.20496,-0.49249 -0.13663,0.006 -0.4644,0.30382 -0.72791,0.66789 z m 134.61621,8.26085 c -0.10832,0.10811 -0.19101,0.51717 -0.18362,0.90333 l 0.0179,0.70907 0.26269,-0.65959 c 0.28821,-0.71568 0.22811,-1.27889 -0.0967,-0.95281 z m -121.77602,1.43946 c -0.11847,0.191 -0.13826,0.41993 -0.048,0.51049 0.24535,0.24536 0.51294,-0.11686 0.37955,-0.51213 -0.0921,-0.27759 -0.15807,-0.27759 -0.33102,0.001 z m 1.90054,0.47591 c 0.39437,0.39028 0.77822,0.64727 0.85634,0.57314 0.21494,-0.21487 -0.79382,-1.28789 -1.20796,-1.28789 -0.20994,10e-4 -0.0619,0.29892 0.35162,0.71475 z m -2.883,0.65792 c 0,0.14903 0.19275,0.27346 0.42834,0.27346 0.23552,0 0.35162,-0.12443 0.25778,-0.27346 -0.21987,-0.3582 -0.68612,-0.3582 -0.68612,0 z m 1.91966,6.30033 c 0,0.34998 0.19511,0.34998 0.41154,0 0.0918,-0.15074 0.0375,-0.27346 -0.12011,-0.27346 -0.1605,0 -0.29143,0.12272 -0.29143,0.27346 z m -4.11316,10.41334 c 0,0.35162 0.19509,0.35162 0.41155,0 0.0915,-0.14897 0.0398,-0.27494 -0.12012,-0.27494 -0.16307,0 -0.29143,0.12429 -0.29143,0.27494 z m -1.51762,2.20616 c -0.24969,0.40586 -0.0496,0.55252 0.38768,0.27738 0.23721,-0.14235 0.26513,-0.28574 0.0797,-0.39773 -0.15481,-0.0961 -0.36652,-0.0423 -0.46847,0.12035 z m -27.22677,2.4546 c 0,0.37633 0.0619,0.53115 0.13826,0.34183 0.0733,-0.18868 0.0733,-0.49665 0,-0.68593 -0.0756,-0.18864 -0.13826,-0.0358 -0.13826,0.3441 z m 0.17027,2.49438 c -0.20334,0.5311 0.34347,2.98322 0.66797,2.98322 0.22313,0 0.0814,-1.20629 -0.32613,-2.72973 -0.13257,-0.5023 -0.22067,-0.5665 -0.34184,-0.25349 z m 3.07646,9.83531 c 0,0.14911 0.1228,0.27329 0.27352,0.27329 0.15074,0 0.27328,-0.12418 0.27328,-0.27329 0,-0.15073 -0.12254,-0.27511 -0.27328,-0.27511 -0.15072,0 -0.27352,0.12438 -0.27352,0.27511 z m 0.82034,1.51762 c 0,0.34169 0.87431,1.80909 0.99874,1.68226 0.14911,-0.14644 -0.64982,-1.8338 -0.86875,-1.8338 -0.0693,0.002 -0.12999,0.0684 -0.12999,0.15154 z m 56.7649,1.81993 c -0.004,0.25757 0.12422,0.54668 0.28742,0.6455 0.48001,0.29983 0.55088,-0.0163 0.12423,-0.57881 -0.3533,-0.46531 -0.40346,-0.47117 -0.41165,-0.0659 z m -55.66558,0.46439 c 0,0.15072 0.12418,0.34999 0.2749,0.44218 0.1491,0.0935 0.27341,0.0481 0.27341,-0.10171 0,-0.15154 -0.12431,-0.35162 -0.27341,-0.44461 -0.14991,-0.0913 -0.2749,-0.0456 -0.2749,0.10497 z m 53.30797,2.77174 c 0,0.30134 0.16309,0.55088 0.36153,0.55088 0.27748,0 0.29553,-0.13093 0.0676,-0.55088 -0.36815,-0.68507 -0.42986,-0.68507 -0.42986,0 z m -35.38732,1.71282 c 0.0317,0.18843 0.14911,0.49641 0.26783,0.6859 0.13666,0.21905 0.0577,0.34333 -0.21334,0.34333 -0.23558,0 -0.42832,0.1788 -0.42832,0.40193 0,0.25936 0.15911,0.33998 0.45218,0.22475 0.45625,-0.17459 0.44216,0.17296 -0.0773,1.92609 -0.10346,0.34575 0.0261,0.54257 0.42423,0.64557 0.31529,0.0815 0.57311,0.23303 0.57311,0.33592 0,0.0997 0.22149,0.20088 0.49805,0.21905 0.83415,0.0635 2.79827,1.01527 2.70177,1.31103 -0.0495,0.15072 -0.37385,0.29306 -0.71789,0.3096 -0.72972,0.0374 -1.16031,0.59697 -0.95942,1.24247 0.0774,0.2513 0.0137,0.53867 -0.14242,0.63492 -0.15904,0.0987 -0.28573,-0.0496 -0.28573,-0.3359 0,-0.28167 -0.18129,-0.75015 -0.40196,-1.04335 -0.62898,-0.83241 -0.52702,0.11035 0.1285,1.18827 0.75422,1.23275 0.69179,1.60661 -0.30797,1.80755 -1.34711,0.26922 -1.41706,0.21311 -0.61107,-0.47849 0.73794,-0.63492 0.74201,-0.66529 0.28331,-1.37098 -0.25945,-0.39609 -0.65553,-0.71976 -0.8762,-0.71976 -0.22312,0 -0.40586,-0.11033 -0.40586,-0.24291 0,-0.13257 -0.2512,-0.30796 -0.55916,-0.38794 -0.30376,-0.0797 -0.53445,-0.24942 -0.50896,-0.37628 0.11873,-0.6069 -0.41583,-2.00997 -0.764,-2.00997 -0.21741,0 -0.32774,-0.10865 -0.24721,-0.23721 0.0797,-0.13093 0.48675,-0.18275 0.9051,-0.12029 0.69575,0.11035 0.72123,0.0838 0.28313,-0.27172 -0.26351,-0.21333 -0.47989,-0.54518 -0.47989,-0.73198 0,-0.42833 -1.31264,-0.14096 -1.94186,0.424 -0.23535,0.21335 -0.64305,0.38795 -0.90087,0.38795 -0.3919,0 -0.41587,0.0936 -0.15643,0.58125 0.17134,0.31962 0.54681,0.64144 0.83255,0.71814 0.28575,0.0733 0.5205,0.25105 0.5205,0.39446 0,0.13826 -0.10354,0.19261 -0.23314,0.11278 -0.12849,-0.0772 -0.37384,0.1605 -0.54269,0.53272 -0.16867,0.37385 -0.41572,0.67531 -0.55255,0.67531 -0.41413,0 -1.67894,-1.11178 -1.61225,-1.41731 0.0343,-0.1605 -0.11278,-0.35569 -0.32369,-0.43216 -0.26758,-0.0991 -0.33182,-0.001 -0.2148,0.3055 0.0959,0.24702 0.0513,0.44791 -0.0915,0.44791 -0.14396,0 -0.26513,0.20495 -0.26513,0.45626 0,0.41993 -0.0358,0.41993 -0.50232,0 -0.27495,-0.25131 -0.63308,-0.45626 -0.79216,-0.45626 -0.16053,0 -0.89659,-0.54275 -1.63451,-1.20396 -1.10176,-0.98898 -1.48132,-1.17822 -2.11461,-1.05974 -0.61349,0.11684 -0.90901,-0.0138 -1.44524,-0.6455 l -0.67507,-0.79217 0.4824,0.88434 c 0.26529,0.48256 1.53991,2.29571 2.82859,4.02505 12.1716,16.3217 29.92287,27.55616 49.80355,31.51858 7.75194,1.54802 17.06445,2.18968 21.67824,1.49947 1.33077,-0.19926 2.13772,-0.40585 1.78942,-0.4644 -0.34996,-0.0554 -0.70321,-0.27759 -0.7856,-0.49232 -0.0871,-0.22908 -0.52702,-0.38794 -1.06388,-0.38794 -1.003,0 -1.51187,-0.4324 -0.74357,-0.63329 0.4018,-0.10518 0.38864,-0.13095 -0.0772,-0.15643 -0.30797,-0.0195 -0.70733,-0.17867 -0.8868,-0.35814 -0.22314,-0.22149 -2.06035,-0.34754 -5.8803,-0.3977 -6.61809,-0.0895 -7.07677,-0.14097 -9.00045,-0.99143 -0.82011,-0.36163 -2.12856,-0.73386 -2.90922,-0.82603 -0.78229,-0.0912 -1.64696,-0.28982 -1.92189,-0.44054 -0.27349,-0.1491 -0.86474,-0.35 -1.30856,-0.44624 -0.59942,-0.12688 -0.70731,-0.23314 -0.42238,-0.40855 0.20913,-0.12849 0.48011,-0.17865 0.5994,-0.10334 0.11699,0.0717 0.64735,0.0137 1.17601,-0.13093 0.57721,-0.16075 1.021,-0.16482 1.11568,-0.0163 0.0856,0.13827 0,0.25104 -0.18849,0.25104 -0.21741,0 -0.24954,0.0941 -0.087,0.2513 0.46848,0.45194 2.17559,0.42809 2.83682,-0.0343 0.59696,-0.4183 0.60516,-0.46034 0.1268,-0.70568 -0.51063,-0.26351 -2.40043,-0.71569 -4.24575,-1.00959 -0.7477,-0.12256 -1.04337,-0.32204 -1.16024,-0.79378 -0.14908,-0.59128 -0.29736,-0.63492 -2.15335,-0.63492 -2.13683,0 -4.65996,-0.58288 -4.50924,-1.04321 0.12431,-0.37628 1.50769,-0.51888 1.91779,-0.19681 1.11748,0.88434 3.91064,1.05973 3.59022,0.22311 -0.16459,-0.42995 0.61349,-0.82265 0.85639,-0.4324 0.0872,0.14503 0.39775,0.26351 0.69346,0.26351 0.30384,0 0.53274,0.18868 0.53274,0.44054 0,0.29163 0.14908,0.38631 0.43236,0.27516 0.23959,-0.0895 0.6176,-0.16726 0.84236,-0.16726 0.35568,0 0.35568,-0.0513 -0.0123,-0.41831 -0.66779,-0.66773 -0.28323,-1.12806 0.83664,-0.99712 0.68602,0.0797 0.93059,0.0195 0.80047,-0.19275 -0.13012,-0.21254 0.20496,-0.3096 1.06961,-0.3096 0.86469,0 1.30688,-0.12849 1.41721,-0.40855 0.0854,-0.22474 0.32939,-0.41154 0.53848,-0.41154 0.34179,0 0.49821,-0.33615 0.31382,-0.67367 -0.0375,-0.0676 0.17457,-0.30146 0.47014,-0.51619 0.46278,-0.33778 0.49242,-0.49259 0.21496,-1.10199 -0.17866,-0.38609 -0.62755,-0.78217 -0.99473,-0.87435 l -0.67035,-0.16807 0.59127,-0.5929 c 0.32776,-0.32614 0.86211,-0.61513 1.18987,-0.6455 0.32775,-0.0277 0.97915,-0.24705 1.44767,-0.48827 0.66942,-0.34591 0.83009,-0.58882 0.75753,-1.13563 -0.0496,-0.38202 -0.26926,-0.80787 -0.48667,-0.94289 -0.29717,-0.19111 -0.30797,-0.25106 -0.0358,-0.25359 0.19679,-0.002 0.28155,-0.13084 0.1885,-0.28157 -0.0912,-0.14911 0.0236,-0.27353 0.25782,-0.27353 0.23717,0 0.42812,-0.18517 0.42812,-0.40992 0,-0.22329 -0.16873,-0.41017 -0.37796,-0.41017 -0.57312,0 -2.9133,-1.0895 -2.9133,-1.35713 0,-0.13095 -0.27758,-0.18274 -0.6176,-0.12255 -0.34017,0.0619 -0.46282,0.044 -0.27511,-0.0456 0.25119,-0.12036 0.26351,-0.30146 0.0456,-0.71163 -0.16296,-0.30123 -0.36806,-0.47836 -0.4545,-0.39198 -0.0856,0.0838 -0.29565,-0.0343 -0.46447,-0.26762 -0.17121,-0.23125 -0.53115,-0.45438 -0.80444,-0.49476 -0.58144,-0.0838 -1.00142,-0.66798 -0.81852,-1.13972 0.11035,-0.2898 -0.45619,-0.56333 -1.41562,-0.68588 -0.14899,-0.0195 -0.44624,-0.17866 -0.65125,-0.35163 -0.21086,-0.17132 -0.5509,-0.31552 -0.75436,-0.31798 -0.42406,-0.004 -2.56747,-1.9959 -2.56747,-2.38788 0,-0.13845 -0.26349,-0.17296 -0.58469,-0.0717 -0.37223,0.12027 -0.51882,0.0814 -0.4018,-0.0996 0.14235,-0.23313 -2.00428,-0.79623 -2.57493,-0.67368 -2.37239,0.50072 -3.32352,0.53457 -5.69177,0.21092 -0.96918,-0.13502 -1.56372,-0.0939 -1.8256,0.12259 -0.30145,0.24963 -0.61104,0.22902 -1.37278,-0.0871 -0.54092,-0.22483 -0.98474,-0.52278 -0.98474,-0.65702 0,-0.13259 -0.38385,-0.25777 -0.85476,-0.27186 -0.46862,-0.0137 -1.68897,-0.4644 -2.71171,-0.99875 -2.1969,-1.15623 -2.60785,-1.21799 -2.33205,-0.36161 0.10834,0.3402 0.22325,1.00956 0.25936,1.48968 0.0773,1.11584 0.9931,2.30409 3.52028,4.56202 2.36425,2.11711 5.68362,3.8454 5.68362,2.96106 0,-0.1285 0.31123,-0.17703 0.69323,-0.10345 0.6457,0.12435 0.65714,0.15903 0.20514,0.51066 -0.4645,0.35975 -0.46028,0.3977 0.0619,0.80764 0.3014,0.23719 0.88451,0.38385 1.29695,0.32368 0.55089,-0.0773 0.79637,0.0317 0.91247,0.40014 0.0937,0.30146 1.10582,0.94697 2.46865,1.586 2.65163,1.23446 3.71708,2.137 3.49966,2.96771 -0.11848,0.44225 0.0871,0.67775 0.97087,1.12994 0.61513,0.31366 1.21218,0.55088 1.32916,0.52454 0.11848,-0.0261 0.42644,0.0456 0.68588,0.16054 0.30553,0.13256 0.82597,-0.0123 1.46746,-0.40607 0.80194,-0.49482 1.04159,-0.54252 1.22439,-0.24539 0.50477,0.81602 -1.66825,1.37285 -6.24841,1.59596 -0.8144,0.0414 -0.77972,0.6192 0.094,1.65672 0.52867,0.62923 0.60272,0.8407 0.28987,0.8407 -0.22904,0 -0.49666,-0.12833 -0.59701,-0.28738 -0.1187,-0.19087 -0.41833,-0.13095 -0.88449,0.17133 -0.62089,0.40607 -0.92641,0.42403 -2.52883,0.13664 -1.00126,-0.17866 -2.18706,-0.56472 -2.6276,-0.85639 -0.44463,-0.29309 -1.02774,-0.5311 -1.30102,-0.53437 -0.27351,0 -0.41995,-0.12436 -0.32776,-0.27494 0.2833,-0.45623 1.23839,-0.30549 2.13927,0.33349 0.93472,0.66529 4.12561,1.05155 4.61795,0.55903 0.49828,-0.49813 -1.06382,-2.34598 -2.67369,-3.16458 -0.82597,-0.41994 -1.57448,-0.94451 -1.65853,-1.16438 -0.0831,-0.21986 -0.32611,-0.40014 -0.53678,-0.40014 -0.20928,0 -0.38632,-0.15318 -0.39038,-0.34163 -0.007,-0.37384 -2.19375,-1.57616 -2.86474,-1.57616 -0.22739,0 -0.75439,-0.39445 -1.16767,-0.87619 -1.74748,-2.02812 -1.91206,-2.13683 -3.116,-2.09075 l -1.15199,0.044 0.8646,0.76993 c 0.47427,0.4265 0.86456,0.8407 0.86456,0.92474 0,0.28736 -1.1858,-0.48664 -2.04627,-1.33899 -0.47676,-0.47009 -1.33059,-0.99712 -1.898,-1.166 -0.71403,-0.21321 -0.94126,-0.21742 -0.73793,-0.0163 0.51065,0.50901 0.31962,0.84087 -0.20659,0.36563 -0.83825,-0.75748 -0.93719,-0.51049 -0.26921,0.67937 0.34739,0.62328 1.14785,1.55395 1.77524,2.07096 0.62918,0.51642 1.2706,1.30266 1.42541,1.74748 0.1648,0.46443 0.58719,0.92309 1.00144,1.07956 0.92472,0.35161 0.95511,0.34741 0.95511,-0.14666 0,-0.57312 0.81849,-0.84649 1.11991,-0.37385 0.17296,0.27166 0.2429,0.2833 0.24699,0.0374 0.002,-0.18705 0.13848,-0.34186 0.30797,-0.34186 0.17295,0 0.24126,0.24293 0.15902,0.56336 -0.10539,0.40584 0.0196,0.62733 0.46028,0.79378 0.33191,0.12687 0.76994,0.42809 0.9734,0.66936 0.20089,0.23966 0.65711,0.44054 1.01528,0.44054 0.35977,0 0.64966,0.11034 0.64966,0.2455 0,0.14081 -0.4241,0.14244 -1.0276,0.004 -0.56332,-0.13504 -1.54402,-0.17133 -2.17151,-0.0797 -0.9849,0.13665 -1.32243,0.0375 -2.41848,-0.71809 -0.70162,-0.47994 -1.35714,-0.79218 -1.4591,-0.6892 -0.10356,0.10171 0.0358,0.34756 0.30797,0.54926 0.33592,0.24535 0.39608,0.42401 0.18844,0.55251 -0.48826,0.30146 0.53868,1.27472 1.14215,1.08115 0.73956,-0.23533 1.13402,0.10845 0.66368,0.57741 -0.21733,0.2173 -0.5105,0.39439 -0.65285,0.39439 -0.14503,0 -0.41423,0.18526 -0.60128,0.41001 -0.42971,0.51888 -1.84364,0.52458 -2.74195,0.0123 -0.37808,-0.21499 -1.10605,-0.58314 -1.61819,-0.82028 -0.51457,-0.2354 -1.45338,-0.89254 -2.09074,-1.45588 -0.63899,-0.56066 -1.6765,-1.43767 -2.30979,-1.94572 -0.63329,-0.50804 -1.28287,-1.21047 -1.44108,-1.558 -0.15815,-0.34756 -0.66782,-0.78973 -1.12978,-0.98329 -0.46277,-0.19096 -1.21617,-0.67517 -1.6765,-1.07382 -0.46277,-0.40016 -1.19232,-0.91065 -1.62633,-1.13785 -0.63167,-0.32368 -0.70162,-0.44056 -0.34348,-0.57483 0.24543,-0.0961 0.44811,-0.0514 0.44811,0.0943 0,0.14235 0.12839,0.26515 0.28982,0.26515 0.16131,0 0.74361,0.30797 1.30102,0.68751 0.55908,0.37793 1.05567,0.5609 1.10583,0.41018 0.24542,-0.73383 2.90684,0.13257 3.95428,1.29284 0.26351,0.29147 0.75764,0.50643 1.09607,0.47665 0.34001,-0.0301 0.86455,0.0774 1.16438,0.24128 0.63899,0.34592 2.36994,0.98897 2.67956,0.99473 0.11686,10e-4 0.0236,-0.28572 -0.20683,-0.63733 -0.22883,-0.34988 -0.35406,-0.7032 -0.27165,-0.78629 0.0797,-0.0798 -0.28981,-0.52866 -0.8201,-0.99738 -0.53458,-0.46602 -0.97092,-0.97489 -0.97092,-1.12806 0,-0.15073 -0.46027,-0.4701 -1.02356,-0.7073 -1.08524,-0.4522 -2.26533,-1.41723 -2.26533,-1.85522 0,-0.14661 0.55088,-0.19933 1.29451,-0.1146 1.10338,0.12443 1.22445,0.0947 0.81439,-0.2066 -0.47277,-0.34591 -2.64747,-2.3 -4.59571,-4.13376 -0.54112,-0.5064 -1.14379,-1.41544 -1.34468,-2.01671 -0.19926,-0.60511 -0.45219,-1.04158 -0.5609,-0.9749 -0.11278,0.0675 -0.35162,-0.23313 -0.53272,-0.67117 -0.48663,-1.17828 -2.04872,-2.52711 -2.45889,-2.11872 -0.24697,0.2429 -0.28163,0.21335 -0.15316,-0.12851 0.12686,-0.32351 -0.0577,-0.52702 -0.66774,-0.73768 -0.46278,-0.16069 -0.83825,-0.48418 -0.83825,-0.71814 0,-0.23556 -0.1491,-0.42401 -0.3294,-0.42401 -0.2429,0 -0.2496,-0.0797 -0.0195,-0.3096 0.39038,-0.39038 0.14489,-1.01959 -0.70569,-1.80924 -0.36978,-0.34168 -0.5731,-0.62335 -0.45462,-0.62335 0.11867,0 -0.11687,-0.30797 -0.52295,-0.6859 -0.8119,-0.7379 -1.24411,-0.86627 -1.16351,-0.33182 z m -2.99567,11.57769 c 0.13094,0.54926 0.10171,0.72954 -0.0797,0.54926 -0.14905,-0.14909 -0.3616,-0.64306 -0.46624,-1.09362 -0.13093,-0.55088 -0.0992,-0.73198 0.0797,-0.55088 0.15073,0.15073 0.36141,0.64328 0.46604,1.09524 z m -0.73117,0.56497 c 0.0358,0.40423 -0.0537,0.62899 -0.21497,0.53272 -0.31774,-0.19926 -0.36978,-1.23432 -0.0554,-1.23432 0.11767,0.002 0.24046,0.31611 0.27084,0.7016 z m 2.94065,2.58551 c 0.58287,0.64332 0.10344,0.75024 -0.52866,0.11873 -0.48419,-0.48256 -0.53867,-0.6654 -0.19929,-0.6654 0.12912,0 0.45441,0.24709 0.72795,0.54667 z m 1.64687,2.46893 c 0.2148,0.3473 -0.1466,0.3473 -0.68608,0 -0.35569,-0.22745 -0.34735,-0.2678 0.0513,-0.27191 0.25592,-0.002 0.53923,0.11954 0.63402,0.27191 z m 2.66798,1.70279 c 0.47255,0.44054 0.71974,0.88271 0.60104,1.07138 -0.13257,0.21315 -0.0815,0.25105 0.15073,0.10551 0.23559,-0.14258 0.3096,-0.0909 0.22474,0.16458 -0.16294,0.48664 -0.55657,0.41018 -0.90492,-0.17866 -0.14911,-0.25536 -0.61107,-0.81031 -1.02776,-1.2327 -0.41404,-0.42401 -0.7542,-0.91902 -0.7542,-1.09931 8.1e-4,-0.3557 0.27256,-0.17215 1.71037,1.16845 z m 24.20047,5.96833 c -0.0937,0.15071 -0.29307,0.27352 -0.44624,0.27352 -0.1491,0 -0.19682,-0.12281 -0.10432,-0.27352 0.0915,-0.15049 0.29321,-0.27492 0.44467,-0.27492 0.15149,0 0.1993,0.12443 0.1054,0.27492 z m 11.33248,3.28328 c 0.39441,-0.004 0.40024,-0.0398 0.044,-0.26942 -0.35829,-0.2313 -0.35412,-0.26762 0.0375,-0.26924 0.24128,-0.004 0.58882,0.16889 0.7683,0.38386 0.25374,0.30798 0.21335,0.41995 -0.20496,0.55496 -0.7214,0.22881 -1.42708,-0.0855 -1.40159,-0.62922 0.0137,-0.28737 0.0717,-0.32344 0.15891,-0.1079 0.0782,0.19112 0.34587,0.34022 0.59705,0.33778 z m -8.10937,2.4711 c 0.23127,0 0.49071,0.18534 0.57719,0.41017 0.21335,0.55088 -0.0577,0.51619 -1.14216,-0.14096 -0.53435,-0.32602 -0.82418,-0.67757 -0.71136,-0.8621 0.13499,-0.21498 0.29549,-0.17297 0.52284,0.14092 0.18446,0.24865 0.52198,0.45197 0.75349,0.45197 z m 3.08135,2.46459 c 0.0937,0.15073 0.0481,0.27517 -0.10399,0.27517 -0.15072,0 -0.34998,-0.12444 -0.44461,-0.27517 -0.0937,-0.14909 -0.044,-0.27328 0.1054,-0.27328 0.15068,0 0.3508,0.12419 0.44299,0.27328 z m 2.33203,2.19376 c 0,0.15073 -0.1853,0.27491 -0.41018,0.27491 -0.22474,0 -0.40994,-0.12418 -0.40994,-0.27491 0,-0.14911 0.1852,-0.27353 0.40994,-0.27353 0.22488,0 0.41018,0.12442 0.41018,0.27353 z m -6.57775,-32.18892 c 0,0.23152 -0.18704,0.49092 -0.41181,0.57733 -0.53272,0.20506 -0.53272,0.6456 0,0.6456 0.22477,0 0.41181,0.18682 0.41181,0.41007 0,0.22729 -0.13095,0.41164 -0.29316,0.41164 -0.15903,0 -0.21489,0.11705 -0.12678,0.26108 0.0872,0.14422 0.36384,0.18534 0.61095,0.0895 0.35162,-0.13501 0.40596,-0.0619 0.25767,0.33183 -0.21488,0.55683 0.20346,0.94862 1.02122,0.95536 0.37793,0.004 0.47255,-0.13675 0.368,-0.54274 -0.11038,-0.42238 -0.007,-0.55089 0.44802,-0.5525 0.32358,0 1.06382,-0.12851 1.63449,-0.28982 0.95942,-0.26762 1.0375,-0.36164 0.96105,-1.16031 -0.11034,-1.13563 -0.96269,-1.55394 -3.17031,-1.56046 -1.35709,0.002 -1.71115,0.0895 -1.71115,0.42237 z m 37.74308,2.23007 c -0.37792,0.37629 -0.1622,0.91226 0.36564,0.91226 0.36555,0 0.54924,-0.18272 0.54924,-0.54924 8.4e-4,-0.52621 -0.53696,-0.73937 -0.91488,-0.36302 z m -14.95154,7.69173 c -0.17124,0.32205 -0.3096,0.77586 -0.3096,1.01291 0,0.23306 -0.12431,0.42824 -0.27498,0.42824 -0.32198,0 -0.35994,1.0836 -0.0496,1.57023 0.12439,0.1952 0.58309,0.28998 1.09195,0.225 0.48256,-0.0619 0.87864,-0.002 0.87864,0.12826 0,0.25536 1.84376,0.16074 2.11298,-0.10811 0.2692,-0.2652 -0.53273,-1.02757 -0.9231,-0.87603 -0.5048,0.19251 -0.46441,-0.38223 0.0693,-0.96921 0.51056,-0.56494 0.31544,-1.04913 -0.40178,-0.99326 -0.34177,0.0261 -0.46441,0.1968 -0.37794,0.53131 0.2215,0.84071 -0.3138,0.53681 -0.9231,-0.52294 -0.55839,-0.97081 -0.59045,-0.98734 -0.89272,-0.42587 z m -36.85039,3.67097 c 0.1852,0.18706 0.40426,0.26947 0.48829,0.18543 0.0831,-0.0831 -0.0635,-0.2372 -0.33769,-0.34023 -0.38777,-0.15153 -0.41746,-0.11929 -0.1506,0.1548 z m 56.82418,0.38144 c -0.50395,0.6051 -0.21737,0.67505 0.34829,0.0838 0.2627,-0.27749 0.3714,-0.50224 0.23883,-0.50224 -0.1342,0 -0.39852,0.1868 -0.58712,0.4175 z m -12.24725,0.0301 c -0.2265,0.0912 -0.18855,0.27512 0.13673,0.6027 0.32439,0.32773 0.55743,0.38628 0.77566,0.18864 0.17296,-0.15479 0.24947,-0.39038 0.16884,-0.52293 -0.0815,-0.13258 0.0236,-0.18274 0.23294,-0.11035 0.24129,0.0814 0.34999,0.44054 0.29572,0.99305 -0.0839,0.83662 -0.0635,0.85478 0.66125,0.57906 0.54092,-0.20683 0.80443,-0.19926 0.94366,0.0302 0.13832,0.2272 0.24703,0.2315 0.38204,0.0122 0.10453,-0.16727 0.0496,-0.30391 -0.11937,-0.30391 -0.16963,0 -0.23061,-0.12442 -0.13672,-0.27515 0.0937,-0.14889 0.008,-0.27491 -0.18852,-0.27735 -0.26107,-0.004 -0.24706,-0.0756 0.0504,-0.2694 0.33517,-0.21724 0.29899,-0.26765 -0.1852,-0.27172 -0.32447,-0.001 -0.65386,0.15073 -0.73045,0.3402 -0.087,0.21312 -0.14653,0.17452 -0.16062,-0.10811 -0.0293,-0.65878 -1.18661,-0.98897 -2.12693,-0.60698 z m -50.14528,2.80644 c 0.0813,0.13257 0.42829,0.31123 0.76996,0.39771 0.59959,0.14901 0.60286,0.13827 0.0895,-0.24129 -0.59115,-0.43972 -1.09188,-0.5319 -0.86062,-0.15642 z m 7.01175,2.77419 c 0.53867,0.34756 0.9025,0.34756 0.68594,0 -0.0913,-0.1491 -0.37635,-0.27353 -0.63147,-0.27189 -0.40194,0.005 -0.40772,0.0407 -0.0537,0.27189 z m 1.37116,1.36935 c 0,0.1491 0.18686,0.27515 0.4116,0.27515 0.2249,0 0.41018,-0.12687 0.41018,-0.27515 0,-0.1483 -0.18528,-0.27493 -0.41018,-0.27493 -0.22637,-8.7e-4 -0.4116,0.12582 -0.4116,0.27493 z m 24.47721,4.82453 c 0.0914,0.0912 0.32772,0.0997 0.527,0.022 0.21485,-0.0856 0.15315,-0.15314 -0.16714,-0.16458 -0.28983,-0.0137 -0.45047,0.0512 -0.35986,0.14233 z m -1.83797,0.37385 c -0.29145,0.10172 -0.41424,0.24967 -0.27338,0.32614 0.36394,0.20088 2.73797,0.29161 2.54523,0.0977 -0.3359,-0.33614 -1.76543,-0.60373 -2.27185,-0.42507 z m 1.8313,1.28473 c -0.58455,0.2356 -0.37792,0.68346 0.27516,0.59128 0.33753,-0.048 0.58453,-0.21335 0.54676,-0.36164 -0.0806,-0.33346 -0.36322,-0.40991 -0.82192,-0.22964 z m -3.90553,0.18355 c 0,0.0856 0.27903,0.46033 0.62329,0.82604 0.45045,0.48256 1.01691,0.71545 2.02405,0.82253 0.77238,0.0814 1.72515,0.23151 2.11873,0.32939 0.53284,0.13502 0.71564,0.0733 0.71564,-0.22312 0,-0.54681 -0.71977,-1.12154 -1.10339,-0.88434 -0.16726,0.10345 -0.88278,0.0994 -1.58599,-0.009 -1.02119,-0.15887 -1.1719,-0.24291 -0.73381,-0.41994 0.49665,-0.20089 0.48418,-0.22149 -0.13665,-0.24291 -0.37791,-0.0123 -0.96267,-0.0953 -1.30264,-0.1868 -0.34267,-0.0905 -0.61923,-0.0951 -0.61923,-0.0109 z m 26.24758,5.02405 c 0.18532,0.0733 0.55753,0.0772 0.82268,0.009 0.26681,-0.0693 0.11448,-0.13095 -0.33768,-0.13665 -0.45283,-0.005 -0.67188,0.0496 -0.485,0.12686 z"
       fill="#cccccc"
       style="fill:#c92121;stroke:none;stroke-width:0.823446;fill-opacity:1" /><path
       style="fill:#000000;fill-opacity:1;stroke:none;stroke-width:0.679453px;stroke-linecap:butt;stroke-linejoin:miter;stroke-opacity:1"
       d="m 449.05563,369.92596 c -50.63941,14.36036 -102.34846,22.57081 -157.14858,23.26453 -108.73857,-0.37359 -146.57231,-11.81564 -187.13091,-23.26453 27.03529,29.21828 66.87795,48.63792 121.48001,56.76545 46.38312,6.33486 90.60475,3.59053 132.85259,-7.44465 44.76398,-11.78355 72.72176,-28.86161 89.94689,-49.3208 z"
       id="path863-4-9"
       sodipodi:nodetypes="cccccc" /><rect
       y="-444.85016"
       x="96.240761"
       height="14.805204"
       width="360.57834"
       id="rect1067-6"
       style="fill:#000000;fill-opacity:1;stroke:none;stroke-width:0.75;stroke-linecap:round;stroke-miterlimit:4;stroke-dasharray:none;stroke-opacity:1"
       transform="scale(1,-1)" /><path
       sodipodi:nodetypes="cccccc"
       id="path863-4"
       d="m 449.05563,374.83967 c -50.63941,14.36036 -102.34846,22.57081 -157.14858,23.26453 -108.73857,-0.37359 -146.57231,-11.81564 -187.13091,-23.26453 27.03529,29.21828 66.87795,48.63792 121.48001,56.76545 46.38312,6.33486 90.60475,3.59053 132.85259,-7.44465 44.76398,-11.78355 72.72176,-28.86161 89.94689,-49.3208 z"
       style="fill:#c92121;fill-opacity:1;stroke:none;stroke-width:0.679453px;stroke-linecap:butt;stroke-linejoin:miter;stroke-opacity:1" /><path
       sodipodi:nodetypes="ccccccccccccc"
       id="path1101-8"
       d="m 92.96816,534.68872 c 44.26191,-14.65821 93.03958,-19.6398 143.01291,-22.05927 68.42307,0.55576 135.29683,8.19406 197.99089,34.93957 29.99143,15.10758 50.76612,33.28742 51.24469,58.23262 0.79746,13.84748 -8.94405,29.98604 -45.80965,52.02114 -12.20378,8.01506 -30.20976,12.61708 -45.80965,18.63443 19.33561,-5.6554 39.3391,-10.08052 56.67974,-19.41087 15.43137,-7.30127 31.3761,-16.75305 42.4868,-30.55236 13.21604,-15.77107 19.85512,-35.10264 9.9679,-55.84869 -7.9683,-22.0566 -31.9813,-37.10896 -58.66618,-51.02791 -31.29853,-11.93715 -64.01997,-21.02844 -98.60722,-26.38815 -54.09163,-5.22679 -108.18325,-6.44149 -162.27488,6.20084 -34.87226,5.99231 -63.51465,19.46047 -90.21535,35.25865 z"
       style="fill:#000000;stroke:#000000;stroke-width:0.75px;stroke-linecap:butt;stroke-linejoin:miter;stroke-opacity:1" /><rect
       y="-492.7063"
       x="270.11267"
       height="44.415611"
       width="15.282791"
       id="rect1069-8"
       style="fill:#000000;fill-opacity:1;stroke:none;stroke-width:0.75;stroke-linecap:round;stroke-miterlimit:4;stroke-dasharray:none;stroke-opacity:1"
       transform="scale(1,-1)" /><rect
       style="fill:#c92121;fill-opacity:1;stroke:none;stroke-width:0.75;stroke-linecap:round;stroke-miterlimit:4;stroke-dasharray:none;stroke-opacity:1"
       id="rect1067"
       width="360.57834"
       height="14.805204"
       x="95.524361"
       y="-449.31308"
       transform="scale(1,-1)" /><rect
       style="fill:#c92121;fill-opacity:1;stroke:none;stroke-width:0.767884;stroke-linecap:round;stroke-miterlimit:4;stroke-dasharray:none;stroke-opacity:1"
       id="rect1069"
       width="15.282791"
       height="46.559078"
       x="265.61267"
       y="-494.2063"
       transform="scale(1,-1)" /><path
       style="fill:#ffff00;stroke:none;stroke-width:0.75px;stroke-linecap:butt;stroke-linejoin:miter;stroke-opacity:1"
       d="m 93.79971,539.39931 c 44.26191,-14.65822 93.03958,-19.63981 143.01291,-22.05927 68.42306,0.55576 135.29682,8.19406 197.99088,34.93957 29.99144,15.10758 50.76612,33.28741 51.2447,58.23261 0.79745,13.84748 -8.94406,29.98604 -45.80966,52.02114 -12.20378,8.01506 -30.20976,12.61708 -45.80965,18.63443 19.33561,-5.6554 39.3391,-10.08052 56.67974,-19.41087 15.43137,-7.30127 31.37611,-16.75305 42.4868,-30.55236 13.21604,-15.77107 19.85512,-35.10263 9.9679,-55.84869 -7.9683,-22.05659 -31.9813,-37.10896 -58.66618,-51.02791 -31.29853,-11.93714 -64.01997,-21.02844 -98.60722,-26.38814 -54.09163,-5.2268 -108.18325,-6.4415 -162.27488,6.20083 -34.87225,5.99232 -63.51464,19.46047 -90.21534,35.25866 z"
       id="path1101"
       sodipodi:nodetypes="ccccccccccccc" /><ellipse
       ry="7.5566511"
       rx="13.381568"
       cy="-589.26477"
       cx="278.24527"
       id="path1103-3"
       style="fill:#000000;fill-opacity:1;stroke:none;stroke-width:0.773438;stroke-linecap:round;stroke-miterlimit:4;stroke-dasharray:none;stroke-opacity:1"
       transform="scale(1,-1)" /><ellipse
       style="fill:#c92121;fill-opacity:1;stroke:none;stroke-width:0.773438;stroke-linecap:round;stroke-miterlimit:4;stroke-dasharray:none;stroke-opacity:1"
       id="path1103"
       cx="275.81033"
       cy="-591.75702"
       transform="scale(1,-1)"
       rx="13.381569"
       ry="7.5566511" /></g></svg>
